<?xml version="1.0" encoding="UTF-8" standalone="no"?>
<svg
   xmlns:dc="http://purl.org/dc/elements/1.1/"
   xmlns:cc="http://creativecommons.org/ns#"
   xmlns:rdf="http://www.w3.org/1999/02/22-rdf-syntax-ns#"
   xmlns:svg="http://www.w3.org/2000/svg"
   xmlns="http://www.w3.org/2000/svg"
   xmlns:sodipodi="http://sodipodi.sourceforge.net/DTD/sodipodi-0.dtd"
   xmlns:inkscape="http://www.inkscape.org/namespaces/inkscape"
   version="1.0"
   width="573.000000pt"
   height="513.000000pt"
   viewBox="0 0 573.000000 513.000000"
   preserveAspectRatio="xMidYMid meet"
   id="svg3151"
   inkscape:version="0.48.5 r10040"
   sodipodi:docname="muscles.svg">
  <defs
     id="defs3315" />
  <sodipodi:namedview
     pagecolor="#ffffff"
     bordercolor="#666666"
     borderopacity="1"
     objecttolerance="10"
     gridtolerance="10"
     guidetolerance="10"
     inkscape:pageopacity="0"
     inkscape:pageshadow="2"
     inkscape:window-width="1920"
     inkscape:window-height="1017"
     id="namedview3313"
     showgrid="false"
     showguides="true"
     inkscape:guide-bbox="true"
     inkscape:zoom="1.294347"
     inkscape:cx="358.125"
     inkscape:cy="347.32117"
     inkscape:window-x="1912"
     inkscape:window-y="832"
     inkscape:window-maximized="1"
     inkscape:current-layer="svg3151" />
  <metadata
     id="metadata3153">
Created by potrace 1.11, written by Peter Selinger 2001-2013
<rdf:RDF>
  <cc:Work
     rdf:about="">
    <dc:format>image/svg+xml</dc:format>
    <dc:type
       rdf:resource="http://purl.org/dc/dcmitype/StillImage" />
  </cc:Work>
</rdf:RDF>
</metadata>
  <g
     transform="matrix(0.10248575,0,0,-0.1026447,-8.199516,485.28686)"
     id="g3155"
     style="fill:#000000;stroke:none">
    <path
       d="m 4090,4225 c -19,-7 -44,-14 -56,-14 -11,-1 -29,-10 -39,-21 -10,-11 -38,-25 -62,-31 -23,-6 -48,-17 -54,-25 -6,-8 -20,-14 -31,-14 -26,0 -78,-31 -78,-46 0,-7 30,-33 68,-58 37,-26 79,-56 95,-68 l 27,-22 28,27 c 15,15 59,57 98,94 39,38 79,83 90,101 17,30 17,35 4,60 -18,32 -42,36 -90,17 z"
       id="path3159"
       inkscape:connector-curvature="0" />
    <path
       d="m 994,4097 c -16,-14 -52,-36 -78,-49 -64,-30 -86,-72 -98,-190 -9,-85 -9,-92 11,-111 17,-17 24,-19 45,-9 14,6 37,31 52,54 61,99 102,153 163,214 64,64 64,65 45,84 -11,11 -40,23 -65,26 -39,5 -49,3 -75,-19 z"
       id="path3165"
       inkscape:connector-curvature="0" />
    <path
       d="m 1198,4056 c -14,-6 -36,-24 -48,-39 -13,-16 -40,-39 -61,-53 -21,-13 -50,-41 -64,-62 -14,-20 -32,-47 -41,-59 -17,-24 -28,-84 -14,-80 5,1 29,-18 53,-43 58,-59 72,-70 107,-80 69,-20 216,-10 254,16 20,14 40.0925,31.0429 49.0925,133.0429 5,50 1.9999,84.0429 -14.0001,121.0429 -12,26 20.2003,35.9609 -14.9692,56.9786 C 1374.9673,3984.4884 1352,4007 1303,4031 c -27,12 -55,25 -63,29 -8,4 -27,2 -42,-4 z"
       id="path3171"
       inkscape:connector-curvature="0"
       sodipodi:nodetypes="cccccccccccscsc" />
    <path
       d="m 3687,4062 c -28,-12 -93,-79 -134,-140 l -38,-57 0,-120 c 0,-66 -3,-125 -7,-131 -4,-7 -1,-18 8,-25 17,-14 30,-3 89,77 37,50 54,63 92,73 82,23 220,164 192,197 -6,8 -16,14 -21,14 -6,0 -27,13 -47,29 -20,15 -49,35 -66,44 -16,9 -26,16 -21,17 5,0 3,7 -4,15 -14,16 -17,17 -43,7 z"
       id="path3173"
       inkscape:connector-curvature="0" />
    <path
       d="m 3896,3858 c -9,-12 -16,-26 -16,-31 0,-9 -75,-83 -115,-112 l -27,-20 17,-45 c 10,-25 21,-85 26,-135 9,-90 36,-221 49,-240 4,-5 21,-50 39,-98 17,-48 42,-105 56,-125 14,-20 25,-43 25,-52 1,-21 24,22 56,103 22,58 36,76 88,119 89,74 90,77 48,123 -15,17 -37,44 -48,61 -24,33 -114,323 -114,365 0,14 -9,34 -20,44 -11,10 -20,24 -20,30 0,7 -6,18 -14,24 -11,10 -17,7 -30,-11 z"
       id="path3177"
       inkscape:connector-curvature="0" />
    <path
       d="m 895,3727 c -11,-7 -19,-19 -17,-28 2,-9 -8,-34 -22,-54 -17,-25 -26,-52 -27,-79 0,-23 -5,-63 -10,-91 -28,-137 -11,-199 38,-140 86,104 113,148 113,186 0,21 6,71 12,110 12,70 12,72 -11,90 -26,21 -46,23 -76,6 z"
       id="path3183"
       inkscape:connector-curvature="0" />
    <path
       d="m 782,3667 c -18,-21 -52,-192 -52,-260 0,-67 14,-95 37,-76 8,7 13,33 13,68 0,31 9,99 20,150 24,110 16,160 -18,118 z"
       id="path3185"
       inkscape:connector-curvature="0" />
    <path
       d="m 1016,3651 c -8,-13 10,-180 23,-214 6,-16 11,-43 11,-60 0,-18 9,-61 20,-97 25,-83 25,-161 0,-228 -30,-79 -27,-102 29,-220 9,-21 98,-65 115,-59 12,5 16,21 16,70 0,35 -4,67 -9,73 -24,24 -32,218 -15,349 6,44 9,140 6,213 l -4,132 -52,0 c -40,0 -60,6 -86,25 -37,27 -46,30 -54,16 z"
       id="path3189"
       inkscape:connector-curvature="0" />
    <path
       d="m 1363,3622 c -28,-10 -55,-20 -59,-24 -4,-5 -20,-8 -36,-8 l -28,0 0,-84 c 0,-46 3,-97 6,-114 l 6,-31 38,30 c 30,24 51,32 100,36 l 43.9076,12.0215 -1.9692,62.0214 c -4,31 4.0616,64.9571 4.0616,91.9571 1,53 2,52 -73,29 z"
       id="path3195"
       inkscape:connector-curvature="0"
       sodipodi:nodetypes="ccscscccccccc" />
    <path
       d="m 3565,3584 c -19,-23 -35,-48 -35,-56 0,-10 -3,-9 -10,2 -7,11 -8,6 -4,-17 3,-17 1,-47 -6,-67 -7,-23 -9,-63 -4,-115 6,-74 8,-81 33,-91 14,-5 41,-20 60,-32 31,-20 35,-20 61,-5 15,10 34,17 42,17 7,0 22,28 34,68 17,54 21,89 19,175 -2,103 -4,110 -29,135 -21,22 -30,25 -44,16 -9,-6 -17,-17 -17,-25 0,-8 -3,-19 -7,-24 -4,-6 -12,-68 -19,-138 -9,-92 -9,-130 -1,-139 8,-11 6,-17 -9,-27 -12,-7 -23,-10 -26,-7 -3,3 -10,44 -15,93 -10,93 2,188 29,228 7,11 13,27 13,36 0,29 -30,17 -65,-27 z"
       id="path3199"
       inkscape:connector-curvature="0" />
    <path
       d="m 1355,3393 c -11,-3 -41,-21 -67,-41 -42,-32 -48,-41 -48,-73 0,-40 11,-49 63,-49 36,0 98,20 119,38 20,16 32,113 15,124 -13,8 -50,9 -82,1 z"
       id="path3201"
       inkscape:connector-curvature="0" />
    <path
       d="m 932,3322 c -1,-7 -13,-23 -27,-36 -20,-19 -26,-37 -33,-102 -6,-49 -18,-97 -33,-124 -13,-25 -22,-48 -21,-52 1,-5 -3,-8 -9,-8 -5,0 -7,-4 -4,-10 3,-5 2,-10 -3,-10 -5,0 -9,-6 -9,-13 0,-8 -16,-38 -36,-68 -19,-30 -43,-74 -53,-99 -10,-25 -28,-62 -41,-83 -19,-31 -22,-41 -12,-53 19,-23 52,15 88,102 17,41 47,96 66,123 43,60 115,219 115,255 0,15 5,46 11,70 6,23 9,60 6,82 -2,21 -4,33 -5,26 z"
       id="path3207"
       inkscape:connector-curvature="0" />
    <path
       d="m 700,3290 c -12,-12 -33,-47 -47,-79 -13,-31 -28,-64 -34,-73 -5,-10 -9,-46 -9,-80 0,-64 -17,-146 -39,-187 -10,-17 -10,-25 0,-37 17,-21 44,6 68,70 11,28 31,75 45,103 42,86 65,164 64,225 0,70 -16,90 -48,58 z"
       id="path3209"
       inkscape:connector-curvature="0" />
    <path
       d="m 3480,3206 c 0,-7 -6,-19 -14,-25 -17,-14 -76,-133 -76,-153 0,-8 5,-19 12,-26 14,-14 48,11 48,37 1,26 28,54 62,66 28,9 35,7 58,-15 15,-14 45,-30 68,-36 39,-10 41,-10 48,15 4,14 7,29 6,34 -1,4 3,7 8,7 6,0 10,14 10,30 0,34 -6,36 -38,14 -26,-18 -69,-12 -104,15 -13,10 -38,26 -55,35 -27,14 -33,14 -33,2 z"
       id="path3217"
       inkscape:connector-curvature="0" />
    <path
       d="m 780,3132 c -36,-51 -65,-107 -86,-167 -17,-49 -36,-103 -43,-118 -13,-34 -14,-84 -1,-92 15,-9 34,31 80,165 24,69 49,130 57,136 7,6 13,14 13,18 0,4 11,24 25,44 23,34 34,92 18,92 -5,0 -33,-35 -63,-78 z"
       id="path3219"
       inkscape:connector-curvature="0" />
    <path
       d="m 1310,3203 c -73,-5 -90,-22 -90,-87 0,-28 6,-62 13,-75 11,-23 16,-24 97,-22 47,1 88,7 91,13 9,14 5,150 -4,166 -5,6 -18,11 -30,10 -12,-1 -47,-3 -77,-5 z"
       id="path3221"
       inkscape:connector-curvature="0" />
    <path
       d="m 3819,3134 c -7,-9 -16,-39 -20,-68 -4,-28 -11,-63 -14,-79 -14,-53 30,-72 100,-42 49,20 52,37 16,87 -16,24 -33,55 -36,70 -10,39 -29,52 -46,32 z"
       id="path3225"
       inkscape:connector-curvature="0" />
    <path
       d="m 3474,3028 c -3,-5 -7,-50 -8,-101 -1,-51 -7,-101 -13,-112 -6,-11 -13,-47 -17,-81 -5,-46 -3,-64 7,-73 23,-18 33,4 56,125 23,119 27,219 11,229 -6,4 -8,10 -6,14 3,4 -2,8 -10,8 -8,0 -17,-4 -20,-9 z"
       id="path3231"
       inkscape:connector-curvature="0" />
    <path
       d="m 3552,3028 c -15,-15 -15,-33 3,-83 13,-36 13,-48 -6,-125 -11,-47 -29,-102 -39,-124 -10,-21 -16,-45 -13,-53 11,-28 37,-7 66,52 17,33 40,80 52,105 13,25 34,77 48,117 23,62 24,73 11,83 -11,10 -17,10 -29,0 -13,-11 -20,-9 -43,13 -32,31 -34,31 -50,15 z"
       id="path3233"
       inkscape:connector-curvature="0" />
    <path
       d="m 1263,2978 c -13,-6 -23,-15 -23,-20 0,-12 23,-52 35,-60 6,-4 15,-38 21,-75 16,-95 30,-161 46,-208 11,-35 17,-40 46,-43 39,-4 35,-28 31,233 0,11 1,56 2,100 l 3,80 -70,2 c -38,1 -79,-3 -91,-9 z"
       id="path3239"
       inkscape:connector-curvature="0" />
    <path
       d="m 3393,2928 c -39,-51 -55,-113 -75,-307 -2,-13 4,-28 14,-35 14,-9 22,-6 40,12 20,20 23,33 24,115 0,61 6,110 18,146 16,46 16,55 4,68 -12,11 -17,12 -25,1 z"
       id="path3243"
       inkscape:connector-curvature="0" />
    <path
       d="m 3863,2916 c -34,-12 -71,-30 -82,-40 -29,-26 -81,-130 -81,-162 0,-16 -7,-49 -15,-73 -12,-33 -13,-46 -4,-57 17,-21 36,-1 70,71 37,80 102,156 149,177 21,9 46,28 56,43 16,24 16,27 -1,45 -21,24 -15,24 -92,-4 z"
       id="path3245"
       inkscape:connector-curvature="0" />
    <path
       d="m 1022,2869 c -7,-10 -12,-29 -12,-41 0,-12 -7,-29 -16,-39 -17,-19 -58,-232 -49,-260 3,-10 1,-35 -4,-56 -27,-99 -38,-343 -20,-447 6,-39 15,-93 19,-121 8,-57 57,-224 72,-242 5,-7 6,-18 2,-25 -20,-32 -3,-128 35,-202 21,-41 44,-102 51,-136 7,-33 22,-73 33,-87 28,-36 38,-89 42,-238 5,-155 12,-220 27,-245 11,-17 13,-17 25,-2 14,19 7,168 -9,188 -4,6 -5,21 -1,33 5,11 4,76 0,143 -10,141 1,220 39,263 13,16 24,33 25,39 2,27 7,52 13,67 4,9 1,21 -7,28 -12,9 -18,8 -31,-4 -15,-15 -20,-15 -68,2 -36,13 -54,25 -56,38 -2,11 -11,28 -19,37 -11,12 -14,29 -10,55 7,40 -5,63 -33,63 -17,0 -42,68 -56,158 -4,23 -10,40 -14,37 -4,-3 -10,19 -13,48 -3,28 -9,73 -13,99 -5,33 -3,53 6,64 17,19 23,239 10,300 -7,31 -6,55 6,94 9,29 13,64 9,79 -4,20 -3,22 5,11 7,-11 8,-2 4,32 -6,41 -3,53 29,105 34,56 35,61 25,103 -6,25 -16,53 -23,62 -10,15 -12,15 -23,-3 z"
       id="path3251"
       inkscape:connector-curvature="0" />
    <path
       d="m 3916,2807 c -27,-29 -64,-62 -83,-75 -23,-16 -46,-50 -78,-117 -25,-53 -51,-94 -58,-92 -16,3 -18,-20 -24,-261 -4,-211 1,-248 33,-221 8,6 14,19 14,28 0,22 65,176 87,206 10,13 32,26 48,29 17,3 56,24 88,46 31,22 61,40 65,40 16,0 113,103 132,140 25,49 25,62 -1,86 -11,10 -27,34 -35,54 -8,19 -30,51 -48,70 -19,19 -41,49 -49,66 -29,57 -38,57 -91,1 z"
       id="path3257"
       inkscape:connector-curvature="0" />
    <path
       d="m 1101,2776 c -10,-12 -6,-29 22,-88 19,-40 38,-84 42,-98 14,-50 54,-126 82,-157 27,-30 71.9692,-85.7853 83.9692,-143.7853 7,-36 34.2465,-82.1503 25.2465,-46.1503 -3,14 1.0616,-20.1503 -4.9384,-24.1499 -6,-4 -37.1541,-1 -32.1541,7 4,7 -21.1232,39.0859 -26.1232,43.0859 -5,3 -18,24 -29,46 -57,113 -86,165 -95,170 -19,13 -42,71 -41,107 1,20 -3,40 -8,43 -6,4 -8,11 -4,16 3,5 -2,21 -11,35 -13,21 -19,23 -31,13 -8,-7 -12,-19 -9,-28 7,-15 9,-32 20,-115 3,-21 10,-46 15,-56 6,-10 10,-32 10,-49 0,-16 5,-33 10,-36 6,-3 10,-17 10,-31 0,-13 13,-38 30,-56 17,-17 30,-37 30,-44 0,-6 15,-30 34,-53 18,-22 37,-57 41,-78 4,-20 15,-53 24,-73 10,-19 26,-58 35,-86 17,-53 55,-101 57,-73 9,107 4,168 -19,219 -21,49 -9.9384,65.0429 8.0616,49.0429 36,-33 49.0308,-5 46.0308,174 l -9.0308,109.8068 -42.0616,52.1503 c -17,6 -42,19 -56,30 -26,21 -89,115 -89,132 0,13 -29,27 -49,24 -8,-2 -12,3 -8,12 3,8 -6,26 -22,41 -24,23 -30,25 -40,12 z"
       id="path3259"
       inkscape:connector-curvature="0"
       sodipodi:nodetypes="ccccccsccccccccccccscscscccccccccccsccccc" />
    <path
       d="m 1044,2598 c -4,-7 -8,-24 -8,-38 -1,-14 -5,-31 -10,-38 -4,-8 -5,-44 -2,-80 4,-37 1,-143 -6,-237 -17,-246 -15,-286 22,-375 10,-25 21,-56 24,-70 11,-46 22,-56 49,-41 33,17 67,127 83,266 8,61 16,125 20,143 4,21 1,44 -10,66 -9,19 -16,38 -16,43 0,5 -13,22 -30,36 -16,15 -30,36 -30,46 0,10 -14,45 -31,77 -25,49 -30,69 -30,131 0,70 -9,97 -25,71 z"
       id="path3265"
       inkscape:connector-curvature="0" />
    <path
       d="m 4063,2399 c -16,-23 -32,-48 -37,-55 -12,-16 11,-88 35,-110 17,-15 20,-13 47,31 73,117 29,245 -45,134 z"
       id="path3269"
       inkscape:connector-curvature="0" />
    <path
       d="m 3940,2297 c -12,-9 -14,-21 -7,-57 4,-25 10,-92 11,-150 4,-115 15,-181 37,-221 65,-118 89,-173 89,-201 0,-39 14,-66 25,-49 5,9 10,9 21,1 11,-10 12,-3 7,42 -3,29 -9,60 -14,69 -5,10 -3,21 4,28 6,6 15,44 19,84 4,40 11,97 14,127 3,31 2,71 -3,90 -7,23 -6,57 0,97 8,48 8,65 -3,77 -10,12 -16,14 -26,5 -8,-6 -14,-17 -14,-23 -1,-49 -55,-37 -90,19 -12,20 -20,39 -16,42 8,8 -13,33 -28,33 -6,0 -18,-6 -26,-13 z"
       id="path3273"
       inkscape:connector-curvature="0" />
    <path
       d="m 3822,2244 c -12,-8 -22,-24 -22,-35 0,-10 -4,-27 -9,-37 -5,-9 -14,-42 -21,-72 -7,-30 -25,-79 -40,-108 -30,-57 -30,-64 11,-157 9,-22 22,-60 29,-85 7,-25 21,-64 31,-87 21,-48 24,-91 9,-143 -8,-26 -6,-39 6,-57 19,-30 30,-22 60,41 17,37 24,69 24,117 0,37 7,86 16,110 14,39 14,67 3,254 -6,116 -16,216 -22,223 -5,7 -7,15 -4,19 10,9 -13,33 -32,33 -9,0 -27,-7 -39,-16 z"
       id="path3277"
       inkscape:connector-curvature="0" />
    <path
       d="m 1230,2055 c -8,-10 -10,-29 -6,-57 7,-43 -3,-99 -35,-202 -11,-33 -19,-68 -19,-77 0,-10 -7,-22 -17,-27 -25,-14 -30,-111 -8,-146 26,-40 53,-51 74,-32 10,9 30,16 46,16 16,0 26,3 22,6 -3,4 3,14 14,23 14,12 24,42 35,110 15,86 15,97 0,144 -9,28 -21,82 -27,121 -14,88 -23,112 -47,125 -15,8 -23,7 -32,-4 z"
       id="path3281"
       inkscape:connector-curvature="0" />
    <path
       d="m 3952,1798 c -5,-7 -12,-38 -13,-68 -4,-52 -1,-60 44,-129 44,-67 50,-72 65,-58 14,15 13,24 -13,104 -16,48 -32,92 -37,98 -4,5 -8,17 -8,26 0,25 -25,42 -38,27 z"
       id="path3287"
       inkscape:connector-curvature="0" />
    <path
       d="m 3890,1494 c -40,-47 -80,-132 -80,-167 0,-18 -6,-56 -14,-83 -8,-27 -17,-71 -21,-99 -5,-44 -3,-53 20,-79 14,-16 25,-33 25,-38 0,-6 20,-33 45,-61 25,-29 45,-58 45,-67 0,-8 7,-1 16,15 28,51 30,165 5,245 -29,89 -33,189 -13,263 14,52 14,59 0,73 -13,13 -16,13 -28,-2 z"
       id="path3293"
       inkscape:connector-curvature="0" />
    <path
       d="m 3983,1485 c -27,-19 -38,-125 -22,-204 6,-31 17,-85 24,-121 7,-36 11,-89 8,-117 -5,-50 -4,-55 31,-93 43,-48 45,-45 72,77 15,72 16,91 4,157 -7,42 -17,76 -21,76 -5,0 -6,7 -3,15 4,8 1,15 -5,15 -6,0 -8,7 -4,17 4,11 3,14 -6,9 -9,-6 -11,0 -8,22 3,17 1,32 -5,34 -5,2 -12,24 -15,48 -3,25 -11,53 -18,62 -10,15 -14,16 -32,3 z"
       id="path3295"
       inkscape:connector-curvature="0" />
    <path
       d="m 997,1412 c -24,-26 -25,-320 -1,-407 9,-33 18,-71 21,-85 2,-14 8,-34 12,-45 5,-11 16,-60 25,-108 22,-111 59,-187 92,-187 13,0 24,5 24,11 0,5 5,7 10,4 17,-10 12,94 -5,111 -11,11 -15,37 -15,90 0,54 -3,73 -12,72 -8,-2 -12,5 -10,17 1,11 4,64 7,119 3,84 1,104 -16,134 -10,20 -19,43 -19,50 0,7 -6,23 -14,35 -7,12 -19,54 -26,94 -9,50 -20,79 -35,93 -21,20 -22,20 -38,2 z"
       id="path3299"
       inkscape:connector-curvature="0" />
    <path
       d="m 1237,1182 c -15,-17 -15,-20 -1,-41 13,-18 16,-52 16,-184 -1,-176 -10,-303 -23,-328 -6,-12 -3,-21 7,-30 61,-50 81,222 41,554 -5,40 -20,51 -40,29 z"
       id="path3301"
       inkscape:connector-curvature="0" />
    <path
       d="m 3792,998 c -18,-18 -14,-59 7,-82 11,-12 38,-77 61,-145 23,-69 48,-137 55,-152 8,-15 17,-54 19,-86 16,-205 20,-233 33,-245 11,-9 16,-9 24,3 11,18 11,47 -2,194 -6,66 -11,136 -10,156 1,21 -5,41 -14,49 -8,7 -15,18 -15,26 0,7 -27,67 -60,133 -33,66 -60,124 -60,129 0,19 -26,32 -38,20 z"
       id="path3305"
       inkscape:connector-curvature="0" />
    <path
       d="m 3972,917 c -24,-29 -26,-83 -4,-129 57,-118 71,-193 71,-379 1,-86 5,-120 15,-128 10,-9 16,-8 26,4 10,12 12,56 7,190 -3,96 -9,180 -14,187 -4,7 -8,56 -8,108 0,87 -2,95 -22,105 -12,6 -30,22 -40,34 -17,20 -20,21 -31,8 z"
       id="path3311"
       inkscape:connector-curvature="0" />
  </g>
  <path
     transform="scale(0.8,0.8)"
     style="fill:none"
     d="m 16.996988,33.993977 156.835842,0 0,519.180723 -156.835842,0 z"
     id="rect3321" />
  <rect
     style="fill:none"
     id="rect3324"
     width="75.713852"
     height="212.46236"
     x="50.218372"
     y="52.536144"
     transform="scale(0.8,0.8)" />
  <path
     style="fill:none"
     d="m 29.675,37.7 0,432.025 109.4,0 0,-432.025 -109.4,0 z"
     id="rect3326" />
  <rect
     style="fill:none"
     id="rect3331"
     width="284.31326"
     height="49.445782"
     x="98.891563"
     y="163.01657"
     transform="scale(0.8,0.8)" />
  <rect
     style="fill:none"
     id="rect3337"
     width="8.4984941"
     height="3.0903614"
     x="163.01657"
     y="290.49399"
     transform="scale(0.8,0.8)" />
  <path
     style="fill:#000000;stroke:none"
     d="m 187.42846,64.386913 c 1.63977,1.437026 5.32926,3.695209 7.99389,5.02959 6.55909,3.079342 8.81378,7.390419 10.0436,19.502495 0.92238,8.724798 0.92238,9.443308 -1.12734,11.393562 -1.74226,1.74496 -2.45966,1.95025 -4.61186,0.92381 -1.4348,-0.61587 -3.79197,-3.181994 -5.32926,-5.542822 -6.25163,-10.161826 -10.45354,-15.70464 -16.70517,-21.965966 -6.55909,-6.569262 -6.55909,-6.671907 -4.61186,-8.622156 1.12734,-1.129092 4.09943,-2.360828 6.66157,-2.668762 3.99695,-0.513224 5.0218,-0.307935 7.68643,1.950249 z"
     id="path3165-1"
     inkscape:connector-curvature="0" />
  <path
     style="fill:#000000;stroke:none"
     d="m 166.52137,68.595346 c 1.4348,0.615868 3.68949,2.463473 4.91931,4.003144 1.33232,1.642315 4.09944,4.003143 6.25164,5.440169 2.1522,1.334381 5.12428,4.208433 6.55908,6.363971 1.4348,2.052895 3.27955,4.824302 4.20192,6.056038 1.74226,2.463473 2.8696,8.622158 1.4348,8.211578 -0.51243,-0.10265 -2.97209,1.847604 -5.43174,4.413724 -5.94418,6.05604 -7.37898,7.18513 -10.96598,8.21158 -7.07152,2.05289 -22.13693,1.02645 -26.03138,-1.64231 -2.04971,-1.43703 -4.10891,-3.1864 -5.03128,-13.656162 -0.51243,-5.132235 -0.20496,-8.626558 1.43481,-12.424412 1.22983,-2.668762 -2.07024,-3.691196 1.53412,-5.848552 2.98807,-1.788481 5.34189,-4.099177 10.36369,-6.56265 2.76712,-1.231737 5.63672,-2.566118 6.45661,-2.976697 0.81988,-0.410579 2.76711,-0.205289 4.3044,0.410579 z"
     id="path3171-7"
     inkscape:connector-curvature="0"
     sodipodi:nodetypes="cccccccccccscsc" />
  <path
     style="fill:#000000;stroke:none"
     d="m 197.57455,102.36546 c 1.12735,0.71851 1.94723,1.95025 1.74226,2.87405 -0.20497,0.9238 0.81989,3.48992 2.25469,5.54282 1.74225,2.56611 2.66463,5.33752 2.76711,8.10893 0,2.36083 0.51243,6.46661 1.02486,9.34067 2.8696,14.06232 1.12734,20.42629 -3.89446,14.37025 -8.81377,-10.67504 -11.58089,-15.19141 -11.58089,-19.09191 0,-2.15554 -0.61491,-7.28777 -1.22983,-11.29092 -1.22983,-7.18513 -1.22983,-7.39042 1.12734,-9.23802 2.66463,-2.15554 4.71435,-2.36083 7.78892,-0.61587 z"
     id="path3183-4"
     inkscape:connector-curvature="0" />
  <path
     style="fill:#000000;stroke:none"
     d="m 209.15544,108.52414 c 1.84474,2.15554 5.32926,19.70779 5.32926,26.68763 0,6.87719 -1.4348,9.75125 -3.79197,7.801 -0.81989,-0.71852 -1.33232,-3.38728 -1.33232,-6.97985 0,-3.18198 -0.92237,-10.16182 -2.04971,-15.3967 -2.45966,-11.29092 -1.63977,-16.42316 1.84474,-12.11208 z"
     id="path3185-0"
     inkscape:connector-curvature="0" />
  <path
     style="fill:#000000;stroke:none"
     d="m 185.17378,110.16646 c 0.81988,1.33438 -1.02486,18.47605 -2.35718,21.96597 -0.61491,1.64231 -1.12734,4.41372 -1.12734,6.15868 0,1.8476 -0.92237,6.26132 -2.04972,9.95654 -2.56214,8.5195 -2.56214,16.52579 0,23.40299 3.07458,8.10892 2.76712,10.46976 -2.97208,22.58183 -0.92237,2.15553 -10.04361,6.6719 -11.78586,6.05604 -1.22983,-0.51323 -1.63978,-2.15555 -1.63978,-7.18513 0,-3.59257 0.40995,-6.8772 0.92238,-7.49306 2.45965,-2.46348 3.27954,-22.37656 1.53728,-35.82301 -0.61491,-4.51636 -0.92237,-14.37025 -0.61491,-21.86332 l 0.40994,-13.5491 5.32926,0 c 4.09943,0 6.14915,-0.61587 8.81377,-2.56612 3.79198,-2.7714 4.71435,-3.07934 5.53424,-1.64231 z"
     id="path3189-9"
     inkscape:connector-curvature="0" />
  <path
     style="fill:#000000;stroke:none"
     d="m 149.61122,113.14316 c 2.8696,1.02644 5.63672,2.05289 6.04666,2.46347 0.40994,0.51322 2.04971,0.82116 3.68949,0.82116 l 2.8696,0 0,8.62215 c 0,4.72166 -0.30746,9.95654 -0.61492,11.7015 l -0.61491,3.18198 -3.89446,-3.07934 c -3.07457,-2.46347 -5.22677,-3.28463 -10.24857,-3.69521 l -4.49991,-1.23394 0.20182,-6.36617 c 0.40994,-3.18199 -0.41626,-6.6675 -0.41626,-9.43891 -0.10249,-5.44017 -0.20497,-5.33752 7.48146,-2.97669 z"
     id="path3195-4"
     inkscape:connector-curvature="0"
     sodipodi:nodetypes="ccscscccccccc" />
  <path
     style="fill:#000000;stroke:none"
     d="m 150.43111,136.64879 c 1.12734,0.30794 4.20191,2.15554 6.86654,4.20844 4.3044,3.28463 4.91932,4.20843 4.91932,7.49306 0,4.10579 -1.12735,5.02959 -6.45661,5.02959 -3.68948,0 -10.0436,-2.0529 -12.1958,-3.9005 -2.04972,-1.64232 -3.27954,-11.59885 -1.53729,-12.72794 1.33232,-0.82116 5.12429,-0.92381 8.40384,-0.10265 z"
     id="path3201-8"
     inkscape:connector-curvature="0" />
  <path
     style="fill:#000000;stroke:none"
     d="m 193.78258,143.93657 c 0.10248,0.71851 1.33231,2.36082 2.76711,3.69521 2.04972,1.95024 2.66463,3.79785 3.38203,10.46976 0.61492,5.02958 1.84475,9.95653 3.38203,12.72794 1.33232,2.56612 2.25469,4.92694 2.1522,5.33752 -0.10248,0.51322 0.30746,0.82116 0.92238,0.82116 0.51243,0 0.7174,0.41058 0.40994,1.02644 -0.30746,0.51323 -0.20497,1.02645 0.30746,1.02645 0.51243,0 0.92237,0.61587 0.92237,1.33439 0,0.82115 1.63977,3.90049 3.68949,6.97984 1.94722,3.07933 4.40688,7.5957 5.43174,10.16182 1.02486,2.56611 2.8696,6.36397 4.20192,8.51951 1.94723,3.18199 2.25468,4.20843 1.22983,5.44017 -1.94723,2.36082 -5.32926,-1.53967 -9.01875,-10.46976 -1.74226,-4.20843 -4.81683,-9.8539 -6.76406,-12.6253 -4.40689,-6.15868 -11.78586,-22.47919 -11.78586,-26.1744 0,-1.53966 -0.51243,-4.72166 -1.12735,-7.18513 -0.61491,-2.36082 -0.92237,-6.15868 -0.61491,-8.41686 0.20497,-2.15554 0.40994,-3.38727 0.51243,-2.66876 z"
     id="path3207-8"
     inkscape:connector-curvature="0" />
  <path
     style="fill:#000000;stroke:none"
     d="m 217.55927,147.2212 c 1.22983,1.23174 3.38203,4.8243 4.81683,8.10893 1.33232,3.18198 2.8696,6.56926 3.48452,7.49306 0.51243,1.02645 0.92237,4.72165 0.92237,8.21157 0,6.56927 1.74226,14.98613 3.99695,19.19456 1.02485,1.74496 1.02485,2.56612 0,3.79786 -1.74226,2.15554 -4.50938,-0.61587 -6.96904,-7.18513 -1.12734,-2.87405 -3.17705,-7.69835 -4.61185,-10.57241 -4.30441,-8.82744 -6.66158,-16.83372 -6.55909,-23.09505 0,-7.18513 1.63977,-9.23802 4.91931,-5.95339 z"
     id="path3209-2"
     inkscape:connector-curvature="0" />
  <path
     style="fill:#000000;stroke:none"
     d="m 209.36041,163.43906 c 3.68949,5.23488 6.66158,10.98298 8.81378,17.14166 1.74226,5.0296 3.68949,10.5724 4.40689,12.11208 1.33231,3.48992 1.4348,8.62216 0.10248,9.44331 -1.53729,0.92381 -3.48451,-3.18199 -8.19886,-16.93638 -2.45966,-7.08248 -5.0218,-13.34381 -5.84169,-13.95968 -0.7174,-0.61586 -1.33231,-1.43702 -1.33231,-1.8476 0,-0.41058 -1.12735,-2.46347 -2.56215,-4.51637 -2.35717,-3.48991 -3.48451,-9.4433 -1.84474,-9.4433 0.51243,0 3.38203,3.59256 6.4566,8.00628 z"
     id="path3219-4"
     inkscape:connector-curvature="0" />
  <path
     style="fill:#000000;stroke:none"
     d="m 155.04296,156.15129 c 7.48146,0.51322 9.22372,2.25818 9.22372,8.93008 0,2.87405 -0.61491,6.36397 -1.33231,7.69835 -1.12735,2.36084 -1.63977,2.46348 -9.94112,2.25819 -4.81683,-0.10265 -9.01874,-0.71851 -9.32621,-1.33439 -0.92237,-1.43702 -0.51242,-15.3967 0.40995,-17.03901 0.51243,-0.61587 1.84474,-1.12909 3.07457,-1.02645 1.22983,0.10264 4.81683,0.30794 7.8914,0.51323 z"
     id="path3221-5"
     inkscape:connector-curvature="0" />
  <path
     style="fill:#000000;stroke:none"
     d="m 159.8598,179.24634 c 1.33231,0.61587 2.35717,1.53967 2.35717,2.0529 0,1.23173 -2.35717,5.33752 -3.587,6.15868 -0.61492,0.41058 -1.53729,3.9005 -2.15221,7.69835 -1.63977,9.75125 -3.07457,16.5258 -4.71434,21.3501 -1.12735,3.59256 -1.74226,4.10579 -4.71435,4.41372 -3.99694,0.41058 -3.587,2.87405 -3.17705,-23.91621 0,-1.1291 -0.10249,-5.74811 -0.20498,-10.26448 l -0.30745,-8.21157 7.174,-0.20529 c 3.89446,-0.10265 8.09638,0.30794 9.32621,0.9238 z"
     id="path3239-5"
     inkscape:connector-curvature="0" />
  <path
     style="fill:#000000;stroke:none"
     d="m 184.55886,190.43461 c 0.7174,1.02645 1.22983,2.9767 1.22983,4.20843 0,1.23174 0.7174,2.9767 1.63977,4.00315 1.74226,1.95025 5.94418,23.81357 5.0218,26.68762 -0.30745,1.02645 -0.10248,3.59257 0.40995,5.74811 2.76711,10.16182 3.89446,35.20713 2.04971,45.88218 -0.61491,4.00314 -1.53728,9.54596 -1.94723,12.42001 -0.81988,5.85075 -5.84169,22.99241 -7.37897,24.84001 -0.51243,0.71852 -0.61492,1.84761 -0.20497,2.56612 2.04971,3.28464 0.30745,13.13852 -3.587,20.73424 -2.15221,4.20843 -4.50938,10.46976 -5.22678,13.95968 -0.7174,3.38727 -2.25468,7.49306 -3.38203,8.93008 -2.8696,3.69521 -3.89446,9.13538 -4.3044,24.42944 -0.51243,15.90993 -1.22983,22.58184 -2.76711,25.14796 -1.12735,1.74496 -1.33232,1.74496 -2.56215,0.20528 -1.4348,-1.95024 -0.7174,-17.24431 0.92237,-19.2972 0.40995,-0.61587 0.51243,-2.15554 0.10249,-3.38728 -0.51243,-1.12908 -0.40994,-7.801 0,-14.67819 1.02486,-14.4729 -0.10249,-22.58183 -3.99694,-26.99556 -1.33232,-1.64231 -2.45966,-3.38727 -2.56215,-4.00313 -0.20497,-2.77141 -0.7174,-5.33753 -1.33231,-6.8772 -0.40995,-0.9238 -0.10249,-2.15554 0.7174,-2.87405 1.22983,-0.92381 1.84474,-0.82116 3.17706,0.41057 1.53728,1.53968 2.04971,1.53968 6.96903,-0.20528 3.68948,-1.33439 5.53423,-2.56612 5.7392,-3.90051 0.20497,-1.12909 1.12734,-2.87405 1.94723,-3.79785 1.12734,-1.23173 1.4348,-2.97669 1.02486,-5.64546 -0.7174,-4.10578 0.51242,-6.46662 3.38202,-6.46662 1.74226,0 4.30441,-6.97984 5.73921,-16.21786 0.40994,-2.36082 1.02485,-4.10578 1.4348,-3.79785 0.40994,0.30793 1.02485,-1.95025 1.33231,-4.92695 0.30746,-2.87405 0.92237,-7.49306 1.33232,-10.16182 0.51243,-3.38728 0.30745,-5.44017 -0.61492,-6.56926 -1.74226,-1.95026 -2.35717,-24.53209 -1.02486,-30.79342 0.71741,-3.18198 0.61492,-5.64545 -0.61491,-9.6486 -0.92237,-2.97669 -1.33231,-6.56926 -0.92237,-8.10892 0.40994,-2.0529 0.30746,-2.25819 -0.51243,-1.1291 -0.7174,1.1291 -0.81989,0.20529 -0.40994,-3.28463 0.61491,-4.20843 0.30745,-5.44017 -2.97209,-10.7777 -3.48452,-5.74809 -3.587,-6.26132 -2.56214,-10.5724 0.61491,-2.56612 1.63977,-5.44017 2.35717,-6.36397 1.02486,-1.53967 1.22983,-1.53967 2.35717,0.30793 z"
     id="path3251-1"
     inkscape:connector-curvature="0" />
  <path
     style="fill:#000000;stroke:none"
     d="m 176.46249,199.98057 c 1.02485,1.23174 0.61491,2.9767 -2.25469,9.03274 -1.94723,4.10578 -3.89446,8.62215 -4.3044,10.05917 -1.4348,5.13224 -5.53423,12.93324 -8.40383,16.11523 -2.76712,3.07933 -7.37582,8.8054 -8.60565,14.7588 -0.7174,3.69521 -3.50978,8.43229 -2.58741,4.73708 0.30746,-1.43703 -0.1088,2.06832 0.50612,2.47885 0.61492,0.41059 3.80777,0.10265 3.29534,-0.71851 -0.40995,-0.71851 2.16482,-4.01196 2.67725,-4.42253 0.51243,-0.30794 1.84475,-2.46348 2.97209,-4.72166 5.84169,-11.59886 8.81377,-16.93638 9.73615,-17.4496 1.94722,-1.33438 4.3044,-7.28778 4.20191,-10.98298 -0.10248,-2.0529 0.30746,-4.1058 0.81989,-4.41372 0.61491,-0.41059 0.81988,-1.1291 0.40994,-1.64232 -0.30746,-0.51323 0.20497,-2.15554 1.12734,-3.59256 1.33232,-2.15555 1.94723,-2.36084 3.17706,-1.33439 0.81989,0.71851 1.22983,1.95025 0.92237,2.87406 -0.7174,1.53966 -0.92237,3.28462 -2.04971,11.80413 -0.30746,2.15554 -1.02486,4.72166 -1.53729,5.74811 -0.61491,1.02645 -1.02485,3.28463 -1.02485,5.02959 0,1.64231 -0.51243,3.38727 -1.02486,3.69521 -0.61492,0.30793 -1.02486,1.74496 -1.02486,3.18198 0,1.33439 -1.33232,3.90051 -3.07457,5.74811 -1.74226,1.74496 -3.07458,3.79785 -3.07458,4.51636 0,0.61588 -1.53728,3.07935 -3.48451,5.44017 -1.84474,2.25819 -3.79197,5.85075 -4.20192,8.00629 -0.40994,2.0529 -1.53728,5.44017 -2.45965,7.49306 -1.02486,1.95025 -2.66463,5.9534 -3.58701,8.82745 -1.74225,5.44017 -5.63671,10.36711 -5.84169,7.49307 -0.92236,-10.98299 -0.40994,-17.24432 1.94724,-22.4792 2.1522,-5.02959 1.01854,-6.67631 -0.8262,-5.034 -3.68949,3.38728 -5.02496,0.51323 -4.71751,-17.86017 l 0.92553,-11.27109 4.31072,-5.35295 c 1.74226,-0.61587 4.3044,-1.95025 5.7392,-3.07934 2.66463,-2.15554 9.12123,-11.80414 9.12123,-13.5491 0,-1.33439 2.97209,-2.77141 5.0218,-2.46347 0.81989,0.20528 1.22983,-0.30794 0.81989,-1.23174 -0.30746,-0.82116 0.61491,-2.66876 2.25469,-4.20843 2.45965,-2.36083 3.07457,-2.56612 4.09943,-1.23174 z"
     id="path3259-7"
     inkscape:connector-curvature="0"
     sodipodi:nodetypes="ccccccsccccccccccccscscscccccccccccsccccc" />
  <path
     style="fill:#000000;stroke:none"
     d="m 182.30417,218.25133 c 0.40995,0.71851 0.81989,2.46347 0.81989,3.9005 0.10249,1.43702 0.51243,3.18198 1.02486,3.90049 0.40994,0.82116 0.51243,4.51637 0.20497,8.21158 -0.40994,3.79786 -0.10249,14.67819 0.61491,24.3268 1.74226,25.25059 1.53729,29.35638 -2.25468,38.49176 -1.02486,2.56612 -2.1522,5.7481 -2.45966,7.18513 -1.12734,4.72165 -2.25469,5.7481 -5.0218,4.20843 -3.38203,-1.74496 -6.86655,-13.03587 -8.50632,-27.30349 -0.81989,-6.26133 -1.63977,-12.83058 -2.04971,-14.67819 -0.40995,-2.15554 -0.10249,-4.51637 1.02485,-6.77455 0.92237,-1.95025 1.63977,-3.9005 1.63977,-4.41372 0,-0.51323 1.33232,-2.25819 3.07458,-3.69521 1.63977,-1.53967 3.07457,-3.69521 3.07457,-4.72166 0,-1.02644 1.4348,-4.61901 3.17706,-7.90364 2.56214,-5.02959 3.07457,-7.08248 3.07457,-13.44646 0,-7.18513 0.92237,-9.95654 2.56214,-7.28777 z"
     id="path3265-1"
     inkscape:connector-curvature="0" />
  <path
     style="fill:#000000;stroke:none"
     d="m 163.24182,273.9874 c 0.81989,1.02645 1.02486,2.9767 0.61492,5.85075 -0.7174,4.41373 0.30746,10.16183 3.587,20.73423 1.12734,3.38728 1.94723,6.97984 1.94723,7.90364 0,1.02645 0.7174,2.25818 1.74226,2.77141 2.56214,1.43703 3.07457,11.39357 0.81988,14.98613 -2.66463,4.10579 -5.43174,5.23488 -7.58394,3.28463 -1.02486,-0.9238 -3.07457,-1.64231 -4.71435,-1.64231 -1.63977,0 -2.66463,-0.30794 -2.25468,-0.61588 0.30745,-0.41057 -0.30746,-1.43702 -1.4348,-2.36082 -1.4348,-1.23174 -2.45966,-4.31108 -3.587,-11.29092 -1.53729,-8.82745 -1.53729,-9.95654 0,-14.78084 0.92237,-2.87405 2.1522,-8.41686 2.76711,-12.42001 1.4348,-9.03273 2.35717,-11.49621 4.81683,-12.83058 1.53729,-0.82116 2.35717,-0.71852 3.27954,0.41057 z"
     id="path3281-1"
     inkscape:connector-curvature="0" />
  <path
     style="fill:#000000;stroke:none"
     d="m 187.121,339.98795 c 2.45966,2.66876 2.56215,32.8463 0.10249,41.77639 -0.92237,3.38728 -1.84474,7.28778 -2.1522,8.7248 -0.20497,1.43702 -0.81989,3.48992 -1.22983,4.61902 -0.51243,1.12908 -1.63977,6.15868 -2.56214,11.08562 -2.25469,11.39356 -6.04666,19.19456 -9.42869,19.19456 -1.33232,0 -2.45966,-0.51322 -2.45966,-1.12909 0,-0.51322 -0.51243,-0.71851 -1.02486,-0.41058 -1.74226,1.02645 -1.22983,-9.6486 0.51243,-11.39356 1.12734,-1.12909 1.53729,-3.79786 1.53729,-9.23803 0,-5.54281 0.30745,-7.49306 1.22983,-7.39041 0.81988,0.20529 1.22983,-0.51323 1.02485,-1.74496 -0.10248,-1.1291 -0.40994,-6.56927 -0.7174,-12.21472 -0.30745,-8.62216 -0.10248,-10.67505 1.63978,-13.75439 1.02485,-2.0529 1.94723,-4.41372 1.94723,-5.13224 0,-0.71851 0.61491,-2.36083 1.4348,-3.59256 0.7174,-1.23174 1.94722,-5.54282 2.66462,-9.6486 0.92238,-5.13224 2.04972,-8.10894 3.58701,-9.54596 2.1522,-2.0529 2.25468,-2.0529 3.89445,-0.20529 z"
     id="path3299-5"
     inkscape:connector-curvature="0" />
  <path
     style="fill:#000000;stroke:none"
     d="m 162.52442,363.59623 c 1.53729,1.74496 1.53729,2.05289 0.10249,4.20843 -1.33231,1.84761 -1.63977,5.33753 -1.63977,18.88662 0.10248,18.06548 1.02486,31.10136 2.35717,33.66747 0.61491,1.23173 0.30746,2.15554 -0.7174,3.07934 -6.25163,5.13223 -8.30135,-22.78713 -4.20192,-56.86517 0.51243,-4.10578 2.04972,-5.23488 4.09943,-2.97669 z"
     id="path3301-2"
     inkscape:connector-curvature="0" />
  <path
     style="fill:#000000;stroke:#000000;stroke-width:1px;stroke-linecap:butt;stroke-linejoin:miter;stroke-opacity:1"
     d="M 526.3125 188.09375 L 526.3125 189.15625 L 515.3125 200.875 L 509.90625 206.28125 L 506.03125 212.46875 L 502.1875 222.5 L 498.3125 229.46875 L 504.5 239.5 L 510.6875 249.53125 L 517.625 258.03125 L 521.5 265.78125 L 524.59375 269.625 L 527.0625 268.40625 L 528.65625 269.21875 L 531.71875 265.34375 L 535.59375 257.625 L 542.5625 249.125 L 548.71875 239.09375 L 554.90625 229.03125 L 551.0625 222.09375 L 547.1875 212.03125 L 543.3125 205.84375 L 537.90625 200.4375 L 526.90625 188.71875 L 526.90625 188.5 L 526.8125 188.625 L 526.3125 188.09375 z "
     transform="scale(0.8,0.8)"
     id="path3472" />
  <path
     style="fill:#000000;stroke:none"
     d="m 431.61739,51.274215 c 1.94723,0.71851 4.50937,1.43702 5.7392,1.43702 1.12734,0.10265 2.97209,1.02645 3.99695,2.15554 1.02485,1.129094 3.89445,2.56612 6.35411,3.181989 2.35717,0.615868 4.91932,1.744959 5.53423,2.566116 0.61492,0.821158 2.04972,1.437027 3.17706,1.437027 2.66463,0 7.99389,3.181985 7.99389,4.721656 0,0.718513 -3.07457,3.387275 -6.96903,5.953393 -3.79197,2.668762 -8.09638,5.748103 -9.73615,6.97984 l -2.76711,2.258183 -2.8696,-2.771407 c -1.53729,-1.539671 -6.04666,-5.850748 -10.04361,-9.648602 -3.99694,-3.900499 -8.09637,-8.51951 -9.22372,-10.367115 -1.74225,-3.079341 -1.74225,-3.592564 -0.40994,-6.15868 1.84474,-3.28463 4.3044,-3.69521 9.22372,-1.74496 z"
     id="path3159-7"
     inkscape:connector-curvature="0" />
  <path
     style="fill:#000000;stroke:none"
     d="m 472.91915,68.0053 c 2.8696,1.231736 9.53117,8.108931 13.73309,14.370258 l 3.89446,5.850748 0,12.317364 c 0,6.77455 0.30745,12.83059 0.7174,13.44646 0.40994,0.71851 0.10248,1.8476 -0.81989,2.56612 -1.74226,1.43702 -3.07457,0.30793 -9.12123,-7.90365 -3.79197,-5.13223 -5.53423,-6.46661 -9.42869,-7.49306 -8.40383,-2.360829 -22.54687,-16.833732 -19.67727,-20.221008 0.61492,-0.821157 1.63978,-1.437026 2.15221,-1.437026 0.61491,0 2.76711,-1.334381 4.81683,-2.976696 2.04971,-1.53967 5.0218,-3.592565 6.76406,-4.516367 1.63977,-0.923803 2.66463,-1.642315 2.1522,-1.74496 -0.51243,0 -0.30746,-0.718513 0.40994,-1.539671 1.4348,-1.642315 1.74226,-1.74496 4.40689,-0.718512 z"
     id="path3173-6"
     inkscape:connector-curvature="0" />
  <path
     style="fill:#000000;stroke:none"
     d="m 451.49962,88.944819 c 0.92238,1.231737 1.63978,2.668762 1.63978,3.181986 0,0.923802 7.68643,8.519515 11.78586,11.496205 l 2.76711,2.0529 -1.74225,4.61901 c -1.02486,2.56612 -2.1522,8.7248 -2.66463,13.85703 -0.92238,9.23803 -3.68949,22.68449 -5.02181,24.63473 -0.40994,0.51323 -2.1522,5.13224 -3.99694,10.05919 -1.74226,4.92695 -4.3044,10.77769 -5.7392,12.83059 -1.4348,2.05289 -2.56215,4.41372 -2.56215,5.33752 -0.10248,2.15554 -2.45965,-2.25818 -5.7392,-10.5724 -2.25468,-5.9534 -3.68949,-7.801 -9.01874,-12.21472 -9.12124,-7.59571 -9.22372,-7.90365 -4.91932,-12.6253 1.53728,-1.74496 3.79197,-4.51637 4.91932,-6.26133 2.45965,-3.38728 11.68337,-33.15424 11.68337,-37.465322 0,-1.437026 0.92237,-3.48992 2.04972,-4.516367 1.12734,-1.026447 2.04971,-2.463473 2.04971,-3.079341 0,-0.718512 0.61492,-1.847604 1.4348,-2.463472 1.12735,-1.026448 1.74226,-0.718514 3.07457,1.129091 z"
     id="path3177-1"
     inkscape:connector-curvature="0" />
  <path
     style="fill:#000000;stroke:none"
     d="m 485.42241,117.06947 c 1.94723,2.36083 3.587,4.92695 3.587,5.7481 0,1.02645 0.30746,0.92381 1.02486,-0.20529 0.7174,-1.12909 0.81988,-0.61586 0.40994,1.74496 -0.30746,1.74496 -0.10249,4.8243 0.61491,6.8772 0.71741,2.36083 0.92238,6.46661 0.40995,11.80414 -0.61492,7.59572 -0.81989,8.31423 -3.38203,9.34068 -1.4348,0.51321 -4.20192,2.05288 -6.14915,3.28462 -3.17705,2.0529 -3.587,2.0529 -6.25163,0.51322 -1.53728,-1.02644 -3.48451,-1.74496 -4.3044,-1.74496 -0.7174,0 -2.25469,-2.87404 -3.48452,-6.97984 -1.74225,-5.54281 -2.1522,-9.13538 -1.94722,-17.96282 0.20497,-10.57241 0.40994,-11.29092 2.97208,-13.85704 2.1522,-2.25818 3.07458,-2.56611 4.50938,-1.64231 0.92237,0.61587 1.74225,1.74496 1.74225,2.56612 0,0.82115 0.30746,1.95025 0.7174,2.46347 0.40995,0.61587 1.22983,6.97984 1.94723,14.16497 0.92238,9.44331 0.92238,13.34381 0.10249,14.26761 -0.81989,1.1291 -0.61492,1.74496 0.92237,2.77141 1.22983,0.71851 2.35717,1.02645 2.66463,0.71851 0.30746,-0.30792 1.02486,-4.51637 1.53729,-9.54595 1.02485,-9.54596 -0.20498,-19.29721 -2.97209,-23.403 -0.7174,-1.12909 -1.33231,-2.7714 -1.33231,-3.69521 0,-2.97669 3.07457,-1.74496 6.66157,2.77141 z"
     id="path3199-4"
     inkscape:connector-curvature="0" />
  <path
     style="fill:#000000;stroke:none"
     d="m 494.1337,155.86917 c 0,0.71852 0.61491,1.95025 1.4348,2.56612 1.74226,1.43702 7.78892,13.65174 7.78892,15.70464 0,0.82116 -0.51243,1.95025 -1.22983,2.66876 -1.4348,1.43703 -4.91932,-1.12909 -4.91932,-3.79785 -0.10249,-2.66877 -2.8696,-5.54282 -6.35412,-6.77455 -2.8696,-0.9238 -3.587,-0.71851 -5.94417,1.53967 -1.53729,1.43702 -4.61186,3.07934 -6.96903,3.69521 -3.99695,1.02645 -4.20192,1.02645 -4.91932,-1.53967 -0.40994,-1.43703 -0.7174,-2.9767 -0.61491,-3.48992 0.10248,-0.41058 -0.30746,-0.71852 -0.81989,-0.71852 -0.61491,0 -1.02486,-1.43702 -1.02486,-3.07934 0,-3.48992 0.61492,-3.69521 3.89446,-1.43702 2.66463,1.8476 7.07152,1.23173 10.65852,-1.53968 1.33232,-1.02644 3.89446,-2.66876 5.63672,-3.59256 2.76711,-1.43703 3.38203,-1.43703 3.38203,-0.20529 z"
     id="path3217-2"
     inkscape:connector-curvature="0" />
  <path
     style="fill:#000000;stroke:none"
     d="m 459.39103,163.25959 c 0.7174,0.9238 1.63977,4.00315 2.04971,6.97984 0.40995,2.87405 1.12735,6.46662 1.4348,8.10893 1.4348,5.44017 -3.07457,7.39042 -10.24857,4.31108 -5.0218,-2.0529 -5.32926,-3.79786 -1.63977,-8.93009 1.63977,-2.46347 3.38203,-5.64546 3.68948,-7.18513 1.02486,-4.00314 2.97209,-5.33752 4.71435,-3.28463 z"
     id="path3225-3"
     inkscape:connector-curvature="0" />
  <path
     style="fill:#000000;stroke:none"
     d="m 494.74861,174.13993 c 0.30746,0.51322 0.7174,5.13224 0.81989,10.36712 0.10248,5.23488 0.7174,10.36711 1.33231,11.4962 0.61492,1.12909 1.33232,4.8243 1.74226,8.31422 0.51243,4.72166 0.30746,6.56927 -0.7174,7.49307 -2.35717,1.8476 -3.38203,-0.41058 -5.7392,-12.8306 -2.35717,-12.21472 -2.76712,-22.47918 -1.12735,-23.50563 0.61492,-0.41058 0.81989,-1.02645 0.61492,-1.43702 -0.30746,-0.41059 0.20497,-0.82116 1.02486,-0.82116 0.81988,0 1.74226,0.41057 2.04971,0.9238 z"
     id="path3231-2"
     inkscape:connector-curvature="0" />
  <path
     style="fill:#000000;stroke:none"
     d="m 486.75472,174.13993 c 1.53729,1.53967 1.53729,3.38728 -0.30745,8.51951 -1.33232,3.69521 -1.33232,4.92694 0.61491,12.83058 1.12734,4.82431 2.97209,10.46976 3.99694,12.72795 1.02486,2.15554 1.63978,4.61901 1.33232,5.44017 -1.12734,2.87405 -3.79197,0.71852 -6.76406,-5.33752 -1.74226,-3.38728 -4.09943,-8.21158 -5.32926,-10.7777 -1.33231,-2.56611 -3.48451,-7.90364 -4.91932,-12.00943 -2.35717,-6.36397 -2.45965,-7.49306 -1.12734,-8.51951 1.12734,-1.02644 1.74226,-1.02644 2.97209,0 1.33231,1.12909 2.04971,0.9238 4.40689,-1.33438 3.27954,-3.18198 3.48451,-3.18198 5.12428,-1.53967 z"
     id="path3233-2"
     inkscape:connector-curvature="0" />
  <path
     style="fill:#000000;stroke:none"
     d="m 503.04996,184.4044 c 3.99694,5.23488 5.63671,11.59885 7.68643,31.51192 0.20497,1.33438 -0.40994,2.87406 -1.4348,3.59257 -1.4348,0.9238 -2.25469,0.61587 -4.09943,-1.23174 -2.04972,-2.05289 -2.35717,-3.38727 -2.45966,-11.80414 0,-6.26132 -0.61491,-11.29091 -1.84474,-14.98612 -1.63977,-4.72167 -1.63977,-5.64547 -0.40995,-6.97984 1.22983,-1.1291 1.74226,-1.23175 2.56215,-0.10265 z"
     id="path3243-1"
     inkscape:connector-curvature="0" />
  <path
     style="fill:#000000;stroke:none"
     d="m 454.88165,185.63614 c 3.48452,1.23173 7.27649,3.07934 8.40384,4.10579 2.97208,2.66876 8.30134,13.34381 8.30134,16.62844 0,1.64231 0.7174,5.02959 1.53729,7.49306 1.22983,3.38727 1.33231,4.72166 0.40994,5.85075 -1.74226,2.15554 -3.68949,0.10264 -7.174,-7.28778 -3.79197,-8.21158 -10.45355,-16.01257 -15.27038,-18.16811 -2.1522,-0.9238 -4.71434,-2.87405 -5.7392,-4.41372 -1.63977,-2.46347 -1.63977,-2.77141 0.10249,-4.61901 2.1522,-2.46347 1.53728,-2.46347 9.42868,0.41058 z"
     id="path3245-6"
     inkscape:connector-curvature="0" />
  <path
     style="fill:#000000;stroke:none"
     d="m 449.44991,196.82441 c 2.76711,2.97669 6.55909,6.36397 8.50632,7.69835 2.35717,1.64232 4.71434,5.13224 7.99389,12.00943 2.56214,5.44017 5.22677,9.6486 5.94417,9.44331 1.63977,-0.30793 1.84474,2.0529 2.45966,26.79028 0.40994,21.65803 -0.10249,25.45588 -3.38203,22.68448 -0.81989,-0.61588 -1.4348,-1.95026 -1.4348,-2.87406 0,-2.25818 -6.66158,-18.06546 -8.91626,-21.14481 -1.02486,-1.33438 -3.27955,-2.66876 -4.91932,-2.97669 -1.74226,-0.30794 -5.7392,-2.46348 -9.01875,-4.72166 -3.17705,-2.25818 -6.25163,-4.10579 -6.66157,-4.10579 -1.63977,0 -11.58089,-10.5724 -13.52812,-14.37026 -2.56214,-5.02959 -2.56214,-6.36397 0.10249,-8.82745 1.12734,-1.02644 2.76711,-3.48992 3.587,-5.5428 0.81988,-1.95026 3.07457,-5.23488 4.91931,-7.18513 1.94723,-1.95026 4.20192,-5.02959 5.02181,-6.77455 2.97208,-5.85076 3.89445,-5.85076 9.3262,-0.10265 z"
     id="path3257-8"
     inkscape:connector-curvature="0" />
  <path
     style="fill:#000000;stroke:none"
     d="m 434.3845,238.70345 c 1.63978,2.36083 3.27955,4.92694 3.79198,5.64545 1.22983,1.64232 -1.12735,9.03274 -3.587,11.29092 -1.74226,1.53968 -2.04972,1.33439 -4.81683,-3.18198 -7.48147,-12.00943 -2.97209,-25.14795 4.61185,-13.75439 z"
     id="path3269-5"
     inkscape:connector-curvature="0" />
  <path
     style="fill:#000000;stroke:none"
     d="m 446.99025,249.17321 c 1.22983,0.9238 1.4348,2.15553 0.7174,5.85075 -0.40994,2.56611 -1.02486,9.44331 -1.12734,15.3967 -0.40994,11.80414 -1.53729,18.57869 -3.79197,22.68448 -6.66158,12.11208 -9.12124,17.75753 -9.12124,20.63159 0,4.00314 -1.4348,6.77455 -2.56214,5.02959 -0.51243,-0.92381 -1.02486,-0.92381 -2.1522,-0.10265 -1.12735,1.02645 -1.22983,0.30794 -0.7174,-4.31108 0.30745,-2.97669 0.92237,-6.15868 1.4348,-7.08248 0.51243,-1.02645 0.30745,-2.15554 -0.40995,-2.87405 -0.61491,-0.61587 -1.53728,-4.51637 -1.94722,-8.62216 -0.40994,-4.10579 -1.12734,-9.95653 -1.4348,-13.03588 -0.30746,-3.18198 -0.20498,-7.28776 0.30746,-9.23802 0.7174,-2.36082 0.61491,-5.85074 0,-9.95654 -0.81989,-4.92694 -0.81989,-6.6719 0.30745,-7.90364 1.02486,-1.23173 1.63977,-1.43702 2.66463,-0.51322 0.81988,0.61587 1.4348,1.74496 1.4348,2.36083 0.10248,5.02959 5.63672,3.79785 9.22372,-1.95025 1.22983,-2.05289 2.04971,-4.00314 1.63977,-4.31108 -0.81988,-0.82116 1.33232,-3.38728 2.8696,-3.38728 0.61492,0 1.84475,0.61588 2.66463,1.33439 z"
     id="path3273-7"
     inkscape:connector-curvature="0" />
  <path
     style="fill:#000000;stroke:none"
     d="m 459.08357,254.61338 c 1.22983,0.82116 2.25469,2.46347 2.25469,3.59256 0,1.02645 0.40994,2.77141 0.92237,3.79785 0.51243,0.92381 1.4348,4.31108 2.1522,7.39043 0.7174,3.07933 2.56214,8.10892 4.09943,11.08562 3.07457,5.85075 3.07457,6.56926 -1.12734,16.11522 -0.92238,2.25819 -2.25469,6.15868 -2.97209,8.7248 -0.7174,2.56612 -2.1522,6.56926 -3.17706,8.93009 -2.1522,4.92695 -2.45966,9.34067 -0.92237,14.67819 0.81989,2.66876 0.61491,4.00315 -0.61492,5.85075 -1.94722,3.07934 -3.07457,2.25818 -6.14914,-4.20843 -1.74226,-3.79785 -2.45966,-7.08248 -2.45966,-12.00944 0,-3.79784 -0.7174,-8.82744 -1.63977,-11.29091 -1.4348,-4.00314 -1.4348,-6.8772 -0.30746,-26.07176 0.61492,-11.90678 1.63977,-22.17125 2.25469,-22.88977 0.51243,-0.71851 0.7174,-1.53966 0.40994,-1.95024 -1.02486,-0.9238 1.33232,-3.38728 3.27955,-3.38728 0.92237,0 2.76711,0.71852 3.99694,1.64232 z"
     id="path3277-6"
     inkscape:connector-curvature="0" />
  <path
     style="fill:#000000;stroke:none"
     d="m 445.76042,300.39291 c 0.51243,0.71852 1.22983,3.90051 1.33232,6.97984 0.40994,5.33753 0.10248,6.15869 -4.50938,13.24117 -4.50937,6.8772 -5.12428,7.39042 -6.66157,5.95339 -1.4348,-1.53966 -1.33231,-2.46347 1.33232,-10.67505 1.63977,-4.92694 3.27954,-9.44331 3.79197,-10.05917 0.40994,-0.51323 0.81988,-1.74496 0.81988,-2.66877 0,-2.56611 2.56215,-4.31107 3.89446,-2.77141 z"
     id="path3287-1"
     inkscape:connector-curvature="0" />
  <path
     style="fill:#000000;stroke:none"
     d="m 452.11454,331.5969 c 4.09943,4.82431 8.19886,13.54911 8.19886,17.14167 0,1.84761 0.61491,5.7481 1.4348,8.51951 0.81989,2.77141 1.74226,7.28778 2.1522,10.16182 0.51243,4.51637 0.30746,5.44018 -2.04971,8.10894 -1.4348,1.64231 -2.56215,3.38727 -2.56215,3.9005 0,0.61587 -2.04971,3.38728 -4.61186,6.26132 -2.56214,2.9767 -4.61186,5.9534 -4.61186,6.8772 0,0.82116 -0.7174,0.10264 -1.63977,-1.53967 -2.8696,-5.23488 -3.07457,-16.93637 -0.51243,-25.14795 2.97209,-9.13538 3.38203,-19.39986 1.33232,-26.99556 -1.4348,-5.33753 -1.4348,-6.05604 0,-7.49306 1.33231,-1.33439 1.63977,-1.33439 2.8696,0.20528 z"
     id="path3293-8"
     inkscape:connector-curvature="0" />
  <path
     style="fill:#000000;stroke:none"
     d="m 442.58336,332.5207 c 2.76712,1.95026 3.89446,12.8306 2.25469,20.93952 -0.61491,3.182 -1.74226,8.7248 -2.45966,12.42002 -0.7174,3.69521 -1.12734,9.13538 -0.81988,12.00942 0.51243,5.13224 0.40994,5.64547 -3.17706,9.54596 -4.40689,4.92695 -4.61186,4.61901 -7.37898,-7.90364 -1.53728,-7.39042 -1.63977,-9.34067 -0.40994,-16.11522 0.7174,-4.31107 1.74226,-7.80099 2.1522,-7.80099 0.51243,0 0.61492,-0.71851 0.30746,-1.53967 -0.40994,-0.82116 -0.10249,-1.53968 0.51243,-1.53968 0.61491,0 0.81988,-0.71851 0.40994,-1.74496 -0.40994,-1.12908 -0.30746,-1.43702 0.61492,-0.9238 0.92237,0.61587 1.12734,0 0.81988,-2.25818 -0.30746,-1.74496 -0.10248,-3.28463 0.51243,-3.48992 0.51243,-0.20529 1.22983,-2.46347 1.53729,-4.92694 0.30745,-2.56612 1.12734,-5.44017 1.84474,-6.36398 1.02486,-1.53967 1.4348,-1.64231 3.27954,-0.30794 z"
     id="path3295-9"
     inkscape:connector-curvature="0" />
  <path
     style="fill:#000000;stroke:none"
     d="m 462.15814,382.50868 c 1.84475,1.8476 1.4348,6.05603 -0.7174,8.41686 -1.12734,1.23174 -3.89446,7.90364 -6.25163,14.88348 -2.35717,7.08249 -4.91931,14.06233 -5.63671,15.602 -0.81989,1.53967 -1.74226,5.54281 -1.94723,8.82744 -1.63978,21.04217 -2.04972,23.91622 -3.38203,25.14796 -1.12735,0.9238 -1.63978,0.9238 -2.45966,-0.30793 -1.12734,-1.84761 -1.12734,-4.82431 0.20497,-19.91308 0.61491,-6.77455 1.12734,-13.95968 1.02486,-16.01257 -0.10249,-2.15554 0.51243,-4.20843 1.4348,-5.02959 0.81988,-0.71851 1.53728,-1.84761 1.53728,-2.66876 0,-0.71851 2.76712,-6.8772 6.14915,-13.65175 3.38203,-6.77455 6.14914,-12.72794 6.14914,-13.24116 0,-1.95026 2.66463,-3.28464 3.89446,-2.0529 z"
     id="path3305-2"
     inkscape:connector-curvature="0" />
  <path
     style="fill:#000000;stroke:none"
     d="m 443.71071,390.8229 c 2.45966,2.97669 2.66463,8.51951 0.40994,13.24116 -5.84169,12.11208 -7.27649,19.81044 -7.27649,38.90235 -0.10248,8.82745 -0.51243,12.31737 -1.53728,13.13852 -1.02486,0.92381 -1.63978,0.82116 -2.66463,-0.41058 -1.02486,-1.23173 -1.22983,-5.7481 -0.7174,-19.50249 0.30745,-9.85389 0.92237,-18.47605 1.4348,-19.19456 0.40994,-0.71852 0.81988,-5.74811 0.81988,-11.08563 0,-8.93009 0.20497,-9.75125 2.25469,-10.77769 1.22983,-0.61587 3.07457,-2.25819 4.09943,-3.48992 1.74226,-2.0529 2.04971,-2.15554 3.17706,-0.82116 z"
     id="path3311-7"
     inkscape:connector-curvature="0" />
  <g
     id="g3552">
    <path
       style="fill:#000000;stroke:#000000;stroke-width:1px;stroke-linecap:butt;stroke-linejoin:miter;stroke-opacity:1"
       d="M 526.3125 83.78125 L 526.3125 84.75 L 519.1875 91.15625 L 508.375 100.4375 L 502.96875 107.375 L 503.71875 115.125 L 508.375 129.78125 L 513 150.65625 L 519.96875 167.65625 L 526.3125 175.4375 L 526.3125 175.71875 L 526.4375 175.5625 L 526.90625 176.15625 L 526.90625 175 L 533.28125 167.21875 L 540.21875 150.21875 L 544.875 129.375 L 549.5 114.6875 L 550.28125 106.96875 L 544.875 100 L 534.0625 90.75 L 526.90625 84.3125 L 526.90625 84.21875 L 526.84375 84.28125 L 526.3125 83.78125 z "
       transform="scale(0.8,0.8)"
       id="path3470" />
  </g>
</svg>
