<?xml version="1.0" encoding="UTF-8" standalone="no"?>
<svg
   xmlns:dc="http://purl.org/dc/elements/1.1/"
   xmlns:cc="http://creativecommons.org/ns#"
   xmlns:rdf="http://www.w3.org/1999/02/22-rdf-syntax-ns#"
   xmlns:svg="http://www.w3.org/2000/svg"
   xmlns="http://www.w3.org/2000/svg"
   xmlns:sodipodi="http://sodipodi.sourceforge.net/DTD/sodipodi-0.dtd"
   xmlns:inkscape="http://www.inkscape.org/namespaces/inkscape"
   version="1.0"
   width="573.000000pt"
   height="513.000000pt"
   viewBox="0 0 573.000000 513.000000"
   preserveAspectRatio="xMidYMid meet"
   id="svg3151"
   inkscape:version="0.48.5 r10040"
   sodipodi:docname="muscles.svg">
  <defs
     id="defs3315" />
  <sodipodi:namedview
     pagecolor="#ffffff"
     bordercolor="#666666"
     borderopacity="1"
     objecttolerance="10"
     gridtolerance="10"
     guidetolerance="10"
     inkscape:pageopacity="0"
     inkscape:pageshadow="2"
     inkscape:window-width="944"
     inkscape:window-height="1001"
     id="namedview3313"
     showgrid="false"
     showguides="true"
     inkscape:guide-bbox="true"
     inkscape:zoom="1.8304831"
     inkscape:cx="545.28383"
     inkscape:cy="504.97668"
     inkscape:window-x="2880"
     inkscape:window-y="840"
     inkscape:window-maximized="0"
     inkscape:current-layer="svg3151" />
  <metadata
     id="metadata3153">
Created by potrace 1.11, written by Peter Selinger 2001-2013
<rdf:RDF>
  <cc:Work
     rdf:about="">
    <dc:format>image/svg+xml</dc:format>
    <dc:type
       rdf:resource="http://purl.org/dc/dcmitype/StillImage" />
  </cc:Work>
</rdf:RDF>
</metadata>
  <g
     transform="matrix(0.10248575,0,0,-0.1026447,-8.199516,485.28686)"
     id="g3155"
     style="fill:#000000;stroke:none">
    <path
       d="m 4090,4225 c -19,-7 -44,-14 -56,-14 -11,-1 -29,-10 -39,-21 -10,-11 -38,-25 -62,-31 -23,-6 -48,-17 -54,-25 -6,-8 -20,-14 -31,-14 -26,0 -78,-31 -78,-46 0,-7 30,-33 68,-58 37,-26 79,-56 95,-68 l 27,-22 28,27 c 15,15 59,57 98,94 39,38 79,83 90,101 17,30 17,35 4,60 -18,32 -42,36 -90,17 z"
       id="path3159"
       inkscape:connector-curvature="0" />
    <path
       d="m 994,4097 c -16,-14 -52,-36 -78,-49 -64,-30 -86,-72 -98,-190 -9,-85 -9,-92 11,-111 17,-17 24,-19 45,-9 14,6 37,31 52,54 61,99 102,153 163,214 64,64 64,65 45,84 -11,11 -40,23 -65,26 -39,5 -49,3 -75,-19 z"
       id="path3165"
       inkscape:connector-curvature="0" />
    <path
       d="m 1198,4056 c -14,-6 -36,-24 -48,-39 -13,-16 -40,-39 -61,-53 -21,-13 -50,-41 -64,-62 -14,-20 -32,-47 -41,-59 -17,-24 -28,-84 -14,-80 5,1 29,-18 53,-43 58,-59 72,-70 107,-80 69,-20 216,-10 254,16 20,14 40.0925,31.0429 49.0925,133.0429 5,50 1.9999,84.0429 -14.0001,121.0429 -12,26 20.2003,35.9609 -14.9692,56.9786 C 1374.9673,3984.4884 1352,4007 1303,4031 c -27,12 -55,25 -63,29 -8,4 -27,2 -42,-4 z"
       id="path3171"
       inkscape:connector-curvature="0"
       sodipodi:nodetypes="cccccccccccscsc" />
    <path
       d="m 3687,4062 c -28,-12 -93,-79 -134,-140 l -38,-57 0,-120 c 0,-66 -3,-125 -7,-131 -4,-7 -1,-18 8,-25 17,-14 30,-3 89,77 37,50 54,63 92,73 82,23 220,164 192,197 -6,8 -16,14 -21,14 -6,0 -27,13 -47,29 -20,15 -49,35 -66,44 -16,9 -26,16 -21,17 5,0 3,7 -4,15 -14,16 -17,17 -43,7 z"
       id="path3173"
       inkscape:connector-curvature="0" />
    <path
       d="m 895,3727 c -11,-7 -19,-19 -17,-28 2,-9 -8,-34 -22,-54 -17,-25 -26,-52 -27,-79 0,-23 -5,-63 -10,-91 -28,-137 -11,-199 38,-140 86,104 113,148 113,186 0,21 6,71 12,110 12,70 12,72 -11,90 -26,21 -46,23 -76,6 z"
       id="path3183"
       inkscape:connector-curvature="0" />
    <path
       d="m 782,3667 c -18,-21 -52,-192 -52,-260 0,-67 14,-95 37,-76 8,7 13,33 13,68 0,31 9,99 20,150 24,110 16,160 -18,118 z"
       id="path3185"
       inkscape:connector-curvature="0" />
    <path
       d="m 1016,3651 c -8,-13 10,-180 23,-214 6,-16 11,-43 11,-60 0,-18 9,-61 20,-97 25,-83 25,-161 0,-228 -30,-79 -27,-102 29,-220 9,-21 98,-65 115,-59 12,5 16,21 16,70 0,35 -4,67 -9,73 -24,24 -32,218 -15,349 6,44 9,140 6,213 l -4,132 -52,0 c -40,0 -60,6 -86,25 -37,27 -46,30 -54,16 z"
       id="path3189"
       inkscape:connector-curvature="0" />
    <path
       d="m 1363,3622 c -28,-10 -55,-20 -59,-24 -4,-5 -20,-8 -36,-8 l -28,0 0,-84 c 0,-46 3,-97 6,-114 l 6,-31 38,30 c 30,24 51,32 100,36 l 43.9076,12.0215 -1.9692,62.0214 c -4,31 4.0616,64.9571 4.0616,91.9571 1,53 2,52 -73,29 z"
       id="path3195"
       inkscape:connector-curvature="0"
       sodipodi:nodetypes="ccscscccccccc" />
    <path
       d="m 3532.5844,3214.7927 c -19,23 -35,48 -35,56 -16.1345,33.2167 -1.9227,-3.6647 -16.9846,41.3551 -7,23 -12.0154,103.6449 -7.0154,155.6449 6,74 8,81 33,91 14,5 41,20 60,32 31,20 35,20 61,5 15,-10 34,-17 42,-17 7,0 22,-28 34,-68 17,-54 21,-89 19,-175 -2,-103 -4,-110 -29,-135 -21,-22 -30,-25 -44,-16 -9,6 -17,17 -17,25 0,8 -3,19 -7,24 -4,6 -12,68 -19,138 -9,92 -9,130 -1,139 8,11 6,17 -9,27 -12,7 -23,10 -26,7 -3,-3 -10,-44 -15,-93 -10,-93 2,-188 29,-228 7,-11 13,-27 13,-36 0,-29 -30,-17 -65,27 z"
       id="path3199"
       inkscape:connector-curvature="0"
       sodipodi:nodetypes="cccccccsccccsccccsccsc" />
    <path
       d="m 1355,3393 c -11,-3 -41,-21 -67,-41 -42,-32 -48,-41 -48,-73 0,-40 11,-49 63,-49 36,0 98,20 119,38 20,16 32,113 15,124 -13,8 -50,9 -82,1 z"
       id="path3201"
       inkscape:connector-curvature="0" />
    <path
       d="m 932,3322 c -1,-7 -13,-23 -27,-36 -20,-19 -26,-37 -33,-102 -6,-49 -18,-97 -33,-124 -13,-25 -22,-48 -21,-52 1,-5 -3,-8 -9,-8 -5,0 -7,-4 -4,-10 3,-5 2,-10 -3,-10 -5,0 -9,-6 -9,-13 0,-8 -16,-38 -36,-68 -19,-30 -43,-74 -53,-99 -10,-25 -28,-62 -41,-83 -19,-31 -22,-41 -12,-53 19,-23 52,15 88,102 17,41 47,96 66,123 43,60 115,219 115,255 0,15 5,46 11,70 6,23 9,60 6,82 -2,21 -4,33 -5,26 z"
       id="path3207"
       inkscape:connector-curvature="0" />
    <path
       d="m 700,3290 c -12,-12 -33,-47 -47,-79 -13,-31 -28,-64 -34,-73 -5,-10 -9,-46 -9,-80 0,-64 -17,-146 -39,-187 -10,-17 -10,-25 0,-37 17,-21 44,6 68,70 11,28 31,75 45,103 42,86 65,164 64,225 0,70 -16,90 -48,58 z"
       id="path3209"
       inkscape:connector-curvature="0" />
    <path
       d="m 3480,3206 c 0,-7 -6,-19 -14,-25 -17,-14 -76,-133 -76,-153 0,-8 5,-19 12,-26 14,-14 48,11 48,37 1,26 28,54 62,66 28,9 35,7 58,-15 15,-14 45,-30 68,-36 39,-10 41,-10 48,15 4,14 7,29 6,34 -1,4 3,7 8,7 6,0 10,14 10,30 0,34 -6,36 -38,14 -26,-18 -69,-12 -104,15 -13,10 -38,26 -55,35 -27,14 -33,14 -33,2 z"
       id="path3217"
       inkscape:connector-curvature="0" />
    <path
       d="m 780,3132 c -36,-51 -65,-107 -86,-167 -17,-49 -36,-103 -43,-118 -13,-34 -14,-84 -1,-92 15,-9 34,31 80,165 24,69 49,130 57,136 7,6 13,14 13,18 0,4 11,24 25,44 23,34 34,92 18,92 -5,0 -33,-35 -63,-78 z"
       id="path3219"
       inkscape:connector-curvature="0" />
    <path
       d="m 1310,3203 c -73,-5 -90,-22 -90,-87 0,-28 6,-62 13,-75 11,-23 16,-24 97,-22 47,1 88,7 91,13 9,14 5,150 -4,166 -5,6 -18,11 -30,10 -12,-1 -47,-3 -77,-5 z"
       id="path3221"
       inkscape:connector-curvature="0" />
    <path
       d="m 3819,3134 c -7,-9 -16,-39 -20,-68 -4,-28 -11,-63 -14,-79 -14,-53 30,-72 100,-42 49,20 52,37 16,87 -16,24 -33,55 -36,70 -10,39 -29,52 -46,32 z"
       id="path3225"
       inkscape:connector-curvature="0" />
    <path
       d="m 3486.7933,3062.0626 c -3,-5 -7,-50 -8,-101 -1,-51 -7,-101 -13,-112 -6,-11 -13,-47 -17,-81 -5,-46 -3,-64 7,-73 23,-18 33,4 56,125 23,119 27,219 11,229 -6,4 -8,10 -6,14 3,4 -2,8 -10,8 -8,0 -17,-4 -20,-9 z"
       id="path3231"
       inkscape:connector-curvature="0" />
    <path
       d="m 3552,3057.8048 c -15,-15 -15,-33 3,-83 13,-36 13,-48 -6,-125 -11,-47 -29,-102 -39,-124 -10,-21 -16,-45 -13,-53 11,-28 37,-7 66,52 17,33 40,80 52,105 13,25 34,77 48,117 23,62 24,73 11,83 -11,10 -17,10 -29,0 -13,-11 -20,-9 -43,13 -32,31 -34,31 -50,15 z"
       id="path3233"
       inkscape:connector-curvature="0" />
    <path
       d="m 1263,2978 c -13,-6 -23,-15 -23,-20 0,-12 23,-52 35,-60 6,-4 15,-38 21,-75 16,-95 30,-161 46,-208 11,-35 17,-40 46,-43 39,-4 35,-28 31,233 0,11 1,56 2,100 l 3,80 -70,2 c -38,1 -79,-3 -91,-9 z"
       id="path3239"
       inkscape:connector-curvature="0" />
    <path
       d="m 3427.1154,2983.3517 c -39,-51 -55,-113 -75,-307 -2,-13 4,-28 14,-35 14,-9 22,-6 40,12 20,20 23,33 24,115 0,61 6,110 18,146 16,46 16,55 4,68 -12,11 -17,12 -25,1 z"
       id="path3243"
       inkscape:connector-curvature="0" />
    <path
       d="m 3863,2916 c -34,-12 -71,-30 -82,-40 -29,-26 -81,-130 -81,-162 0,-16 -7,-49 -15,-73 -12,-33 -13,-46 -4,-57 17,-21 36,-1 70,71 37,80 102,156 149,177 21,9 46,28 56,43 16,24 16,27 -1,45 -21,24 -15,24 -92,-4 z"
       id="path3245"
       inkscape:connector-curvature="0" />
    <path
       d="m 119.40625,397.88554 c 0.64054,0.89814 0.76243,-2.34618 0.25,-1.44804 -2.56214,4.10579 -0.39932,16.44287 4.46875,25.9375 2.69025,5.26054 5.6345,13.0751 6.53125,17.4375 0.89675,4.23409 2.84082,9.35997 4.25,11.15625 3.587,4.61901 4.86257,11.41367 5.375,30.53125 0.64054,19.88741 1.54714,28.22985 3.46875,31.4375 1.40918,2.1812 1.65021,2.17459 3.1875,0.25 1.7935,-2.43781 0.89346,-21.52763 -1.15625,-24.09375 -0.51243,-0.76984 -0.63743,-2.71033 -0.125,-4.25 0.64054,-1.41136 0.51243,-9.74726 0,-18.34375 -1.28107,-18.09113 0.13193,-28.23285 5,-33.75 1.66539,-2.05289 3.05939,-4.23016 3.1875,-5 0.25621,-3.46426 0.91886,-6.66916 1.6875,-8.59375 0.51243,-1.15475 0.11861,-2.69561 -0.90625,-3.59375 -1.53729,-1.15475 -2.30336,-1.03967 -3.96875,0.5 -1.92161,1.92459 -2.56961,1.9312 -8.71875,-0.25 -4.61186,-1.66798 -6.90004,-3.20702 -7.15625,-4.875 -0.25621,-1.41136 -1.41264,-3.59525 -2.4375,-4.75 -1.40918,-1.53967 -1.79368,-3.72655 -1.28125,-7.0625 0.89675,-5.13224 -2.20818,-6.51732 -5.79518,-6.51732 -3.61327,-7.81686 -8.34912,-3.3626 -5.86107,5.27786 z"
       id="path3077"
       transform="matrix(7.8059633,0,0,-7.7938754,80.006401,4727.8316)"
       inkscape:connector-curvature="0"
       sodipodi:nodetypes="cccccccccccccccccccccc" />
    <path
       d="m 119.40625,270 c -0.79093,0.17244 -1.47964,-1.82379 -2.5,-1.68522 -6.28357,-2.18899 -7.48134,7.85803 -6.09375,13.81022 0.38432,1.28306 0.14054,4.49308 -0.5,7.1875 -3.45889,12.70228 -4.86843,43.99994 -2.5625,57.34375 0.76864,5.00393 1.89382,11.93869 2.40625,15.53125 1.49949,3.31491 3.30796,22.68705 6.90625,22.9375 11.6309,2.7112 4.12902,-6.57906 2.59375,-14.34375 -0.51243,-2.95104 -1.30007,-5.13492 -1.8125,-4.75 -0.51243,0.38492 -1.27193,-2.43538 -1.65625,-6.15625 -0.38432,-3.59256 -1.14382,-9.35155 -1.65625,-12.6875 -0.64054,-4.23409 -0.40296,-6.80739 0.75,-8.21875 2.17782,-2.43781 2.94664,-30.67334 1.28125,-38.5 -0.89675,-3.97748 -0.75604,-7.05857 0.78125,-12.0625 1.34303,-8.21595 2.75141,-11.83477 2.3125,-15.65625 -0.15655,-1.07143 -0.21075,-1.91248 -0.25,-2.75 z"
       id="path3070"
       transform="matrix(7.8059633,0,0,-7.7938754,80.006401,4727.8316)"
       inkscape:connector-curvature="0"
       sodipodi:nodetypes="ccccccccsccccccc" />
    <path
       d="m 122.1875,236.71875 c -0.40033,0.0481 -0.79541,0.6265 -1.5,1.78125 -0.89675,1.28306 -1.5625,3.71033 -1.5625,5.25 0,1.53967 -0.87829,3.71694 -2.03125,5 -1.15061,1.28797 -2.39904,6.45955 -3.86803,14.47212 2.20005,0.17043 1.65432,2.14568 5.64928,3.52788 0.32101,0.11107 0.45366,0.15138 0.75,0.21875 0.45676,-1.99132 1.55169,-4.1097 3.75,-7.6875 4.35564,-7.18513 4.46857,-7.8299 3.1875,-13.21875 -0.76864,-3.20765 -2.04075,-6.78275 -2.9375,-7.9375 -0.64054,-0.96229 -1.03717,-1.45436 -1.4375,-1.40625 z"
       id="path3251"
       transform="matrix(7.8059633,0,0,-7.7938754,80.006401,4727.8316)"
       inkscape:connector-curvature="0"
       sodipodi:nodetypes="scsccsccccs" />
    <path
       d="m 3916,2807 c -27,-29 -64,-62 -83,-75 -23,-16 -46,-50 -78,-117 -98.8496,-132.8167 2.2027,-328.6532 100,-311 17,3 56,24 88,46 31,22 61,40 65,40 16,0 113,103 132,140 25,49 25,62 -1,86 -11,10 -27,34 -35,54 -8,19 -30,51 -48,70 -19,19 -41,49 -49,66 -29,57 -38,57 -91,1 z"
       id="path3257"
       inkscape:connector-curvature="0"
       sodipodi:nodetypes="cccccscccccc" />
    <path
       d="M 149.9375 306.28125 C 149.89895 306.30602 149.93223 306.31514 149.875 306.34375 C 149.64466 306.45892 149.3071 306.16165 149.125 306.34375 C 148.9429 306.52586 149.24017 306.86341 149.125 307.09375 C 149.00983 307.3241 148.52585 306.91165 148.34375 307.09375 C 148.25275 307.1848 148.43485 307.409 148.34375 307.5 C 148.16165 307.6821 147.7446 307.3179 147.5625 307.5 C 147.4715 307.59105 147.6535 307.784 147.5625 307.875 C 147.41853 308.01895 147.12573 307.85663 146.875 307.78125 C 146.74963 307.74356 146.64978 307.71654 146.5625 307.78125 C 146.47522 307.84596 146.41225 307.97807 146.40625 308.25 C 146.40625 308.25 146.40625 308.25 146.40625 308.25 C 146.31525 308.34105 146.52142 308.59865 146.40625 308.65625 C 146.17591 308.77143 145.85534 308.54108 145.625 308.65625 C 145.50983 308.71384 145.716 308.94025 145.625 309.03125 C 145.36747 309.28878 145.28219 309.12782 145.25 309.03125 C 145.21781 308.93468 145.25 308.92244 145.25 309.4375 C 145.1209 309.56659 144.59784 309.3084 144.46875 309.4375 C 144.37765 309.52855 144.55975 309.7215 144.46875 309.8125 C 144.30779 309.97346 144.22265 309.97466 144.15625 309.90625 C 144.08985 309.83784 144.0393 309.70548 144.03125 309.625 C 144.01515 309.46404 144.09375 309.49924 144.09375 310.59375 C 143.97858 310.82409 143.4946 310.41165 143.3125 310.59375 C 143.2215 310.6848 143.42767 310.91115 143.3125 310.96875 C 143.08216 311.08392 142.76159 310.85357 142.53125 310.96875 C 142.41608 311.02633 142.62225 311.25275 142.53125 311.34375 C 142.4402 311.43475 142.27143 311.28615 142.15625 311.34375 C 141.99338 311.42519 141.94413 311.6686 141.78125 311.75 C 141.66608 311.8076 141.50377 311.75 141.375 311.75 L 141.34375 311.75 C 141.77483 312.47891 142.1875 313.21537 142.1875 313.5625 C 142.1875 314.33234 144.12846 317.39271 146.5625 320.34375 C 148.86843 323.16648 151.30007 327.68058 151.8125 330.375 C 152.32493 332.94112 153.72204 337.15263 154.875 339.71875 C 156.15607 342.15656 158.22204 347.18869 159.375 350.78125 C 161.55282 357.58146 166.40004 363.71756 166.65625 360.125 C 167.80921 346.39627 167.16522 338.57485 164.21875 332.03125 C 163.82769 331.04179 163.47931 329.94558 163.09375 329 C 162.3048 327.18278 161.68661 325.6092 161 324.71875 C 159.82467 321.54182 157.56264 317.46051 155.40625 315.46875 C 154.76571 315.08383 153.09668 312.41648 151.6875 309.59375 C 150.93418 308.09802 150.55966 307.48826 149.9375 306.28125 z "
       id="path3154"
       transform="matrix(7.8059633,0,0,-7.7938754,80.006401,4727.8316)" />
    <path
       d="M 137.125 297.0625 C 137.034 297.1535 137.216 297.34645 137.125 297.4375 C 136.9959 297.5666 136.50409 297.30841 136.375 297.4375 C 136.284 297.5286 136.49017 297.78616 136.375 297.84375 C 136.14465 297.95892 135.82409 297.72858 135.59375 297.84375 C 135.47858 297.90135 135.63445 298.09659 135.59375 298.21875 C 135.50275 298.4919 135.3098 298.72684 135.21875 299 C 135.13735 299.24431 135.40085 299.56789 135.21875 299.75 C 135.12775 299.841 134.90355 299.659 134.8125 299.75 C 134.63039 299.9321 134.9946 300.34914 134.8125 300.53125 C 134.72899 300.61467 134.56805 300.48607 134.46875 300.53125 C 134.47019 300.59878 134.5 300.65112 134.5 300.71875 C 134.5 302.38673 136.16593 305.59674 138.34375 307.90625 C 139.67985 309.24442 140.65947 310.59297 141.34375 311.75 L 141.375 311.75 C 141.50377 311.75 141.66608 311.8076 141.78125 311.75 C 141.94413 311.6686 141.99338 311.42519 142.15625 311.34375 C 142.27143 311.28615 142.4402 311.43475 142.53125 311.34375 C 142.62225 311.25275 142.41608 311.02633 142.53125 310.96875 C 142.76159 310.85357 143.08216 311.08392 143.3125 310.96875 C 143.42767 310.91115 143.2215 310.6848 143.3125 310.59375 C 143.4946 310.41165 143.97858 310.82409 144.09375 310.59375 C 144.09375 309.49924 144.01515 309.46404 144.03125 309.625 C 144.0393 309.70548 144.08985 309.83784 144.15625 309.90625 C 144.22265 309.97466 144.30779 309.97346 144.46875 309.8125 C 144.55975 309.7215 144.37765 309.52855 144.46875 309.4375 C 144.59784 309.3084 145.1209 309.56659 145.25 309.4375 C 145.25 308.92244 145.21781 308.93468 145.25 309.03125 C 145.28219 309.12782 145.36747 309.28878 145.625 309.03125 C 145.716 308.94025 145.50983 308.71384 145.625 308.65625 C 145.85534 308.54108 146.17591 308.77143 146.40625 308.65625 C 146.52142 308.59865 146.31525 308.34105 146.40625 308.25 C 146.41225 307.97807 146.47522 307.84596 146.5625 307.78125 C 146.64978 307.71654 146.74963 307.74356 146.875 307.78125 C 147.12573 307.85663 147.41853 308.01895 147.5625 307.875 C 147.6535 307.784 147.4715 307.59105 147.5625 307.5 C 147.7446 307.3179 148.16165 307.6821 148.34375 307.5 C 148.43485 307.409 148.25275 307.1848 148.34375 307.09375 C 148.52585 306.91165 149.00983 307.3241 149.125 307.09375 C 149.24017 306.86341 148.9429 306.52586 149.125 306.34375 C 149.3071 306.16165 149.64466 306.45892 149.875 306.34375 C 149.93223 306.31514 149.89895 306.30602 149.9375 306.28125 C 148.3591 303.21909 146.82634 300.20615 145.5625 297.84375 C 145.45953 297.83493 145.35183 297.86411 145.25 297.84375 C 145.12373 297.81845 145.341 297.52856 145.25 297.4375 C 145.1443 297.33181 143.89707 297.54229 143.6875 297.4375 C 143.52463 297.3561 143.48916 297.10667 143.3125 297.0625 C 142.81282 296.93758 142.29631 297.0625 141.78125 297.0625 L 138.6875 297.0625 C 138.54564 297.0625 137.14054 297.047 137.125 297.0625 z "
       id="path3138"
       transform="matrix(7.8059633,0,0,-7.7938754,80.006401,4727.8316)" />
    <path
       d="M 128.375 259.65625 C 128.06098 259.77162 127.72807 259.99173 127.34375 260.3125 C 126.31889 261.21064 125.80318 262.7515 126.1875 263.90625 C 127.08425 265.83084 127.34082 268.00686 128.75 278.65625 C 129.13432 281.35067 130.01571 284.56069 130.65625 285.84375 C 131.42489 287.12681 131.9375 289.9438 131.9375 292.125 C 131.9375 294.17789 132.57821 296.36508 133.21875 296.75 C 133.95845 297.12043 134.43196 298.80513 134.46875 300.53125 C 134.56805 300.48607 134.72899 300.61467 134.8125 300.53125 C 134.9946 300.34914 134.63039 299.9321 134.8125 299.75 C 134.90355 299.659 135.12775 299.841 135.21875 299.75 C 135.40085 299.56789 135.13735 299.24431 135.21875 299 C 135.3098 298.72684 135.50275 298.4919 135.59375 298.21875 C 135.63445 298.09659 135.47858 297.90135 135.59375 297.84375 C 135.82409 297.72858 136.14465 297.95892 136.375 297.84375 C 136.49017 297.78616 136.284 297.5286 136.375 297.4375 C 136.50409 297.30841 136.9959 297.5666 137.125 297.4375 C 137.216 297.34645 137.034 297.1535 137.125 297.0625 C 137.14054 297.047 138.54564 297.0625 138.6875 297.0625 L 141.78125 297.0625 C 142.29631 297.0625 142.81282 296.93758 143.3125 297.0625 C 143.48916 297.10667 143.52463 297.3561 143.6875 297.4375 C 143.89707 297.54229 145.1443 297.33181 145.25 297.4375 C 145.341 297.52856 145.12373 297.81845 145.25 297.84375 C 145.35183 297.86411 145.45953 297.83493 145.5625 297.84375 C 142.49564 292.11112 140.23226 288.18869 139.5 287.78125 C 137.06596 286.11327 134.12189 278.65026 134.25 274.03125 C 134.37811 271.46513 133.85929 268.91617 133.21875 268.53125 C 132.45011 268.01803 132.20632 267.11028 132.71875 266.46875 C 133.10307 265.82722 132.46546 263.76503 131.3125 261.96875 C 130.06346 259.94793 129.31707 259.31014 128.375 259.65625 z "
       id="path3934"
       transform="matrix(7.8059633,0,0,-7.7938754,80.006401,4727.8316)" />
    <path
       d="m 132.6875,249.46875 c -0.73662,-0.22454 -1.26571,0.13476 -1.90625,0.96875 -1.28107,1.53967 -0.74325,3.7112 2.84375,11.28125 2.43404,5.13224 4.86257,10.76622 5.375,12.5625 1.7935,6.41529 6.913,16.17877 10.5,20.15625 3.45889,3.84918 9.21271,10.99576 10.75,18.4375 0.66839,3.34309 2.96505,5.87637 3.47167,8.96 0.45805,1.99658 -0.0158,3.11565 1.52833,3.915 4.61186,4.23409 6.29057,0.623 5.90625,-22.34375 L 170,289.3125 164.625,282.625 c -2.17782,-0.76984 -5.394,-2.43239 -7.1875,-3.84375 -3.33079,-2.69442 -11.40625,-14.7563 -11.40625,-16.9375 0,-1.66798 -3.71911,-3.44742 -6.28125,-3.0625 -1.02486,0.25661 -1.51243,-0.40775 -1,-1.5625 0.38432,-1.02645 -0.79404,-3.32541 -2.84375,-5.25 -1.53729,-1.47552 -2.48213,-2.27546 -3.21875,-2.5 z"
       id="path3259"
       transform="matrix(7.8059633,0,0,-7.7938754,80.006401,4727.8316)"
       inkscape:connector-curvature="0"
       sodipodi:nodetypes="scccccccccccscccs" />
    <path
       d="m 1044,2598 c -4,-7 -8,-24 -8,-38 -1,-14 -5,-31 -10,-38 -4,-8 -5,-44 -2,-80 4,-37 1,-143 -6,-237 -17,-246 -15,-286 22,-375 10,-25 21,-56 24,-70 11,-46 22,-56 49,-41 33,17 67,127 83,266 8,61 16,125 20,143 4,21 1,44 -10,66 -9,19 -16,38 -16,43 0,5 -13,22 -30,36 -16,15 -30,36 -30,46 0,10 -14,45 -31,77 -25,49 -30,69 -30,131 0,70 -9,97 -25,71 z"
       id="path3265"
       inkscape:connector-curvature="0" />
    <path
       d="m 3931.4712,2271.4531 c -12,-9 -5.4712,4.5469 1.5288,-31.4531 4,-25 31.3222,-215.4769 32.3222,-273.4769 7.5845,-162.0427 -53.4177,-291.2293 -14.7262,-409.2265 90.6724,98.5657 140.3723,213.9734 147.2886,277.1878 4,40 19.5288,105.5156 22.5288,135.5156 -15.1414,76.3738 13.4143,133.1127 22.5866,187 -14.4783,128.5659 99.2202,513.119 3.9087,322.9851 -100.0065,-119.5333 -142.9762,-146.6149 -215.4375,-208.532 z"
       id="path3273"
       inkscape:connector-curvature="0"
       sodipodi:nodetypes="ccccccccc" />
    <path
       d="m 3727.0336,2206.0626 c -5,-9 -1.2067,-50.5157 -8.2067,-80.5157 12.0666,-116.63 -8.4562,-220.7537 22.1731,-290.5469 9,-22 22,-60 29,-85 7,-25 21,-64 31,-87 21,-48 24,-91 9,-143 -8,-26 -6,-39 6,-57 19,-30 30,-22 60,41 17,37 24,69 24,117 0,37 7,86 16,110 14,39 14,67 3,254 -6,116 -16,216 -22,223 -5,7 -7,15 -4,19 10,9 -13,33 -32,33 -113.0009,-39.1869 -134.5067,135.4066 -133.9664,-53.9374 z"
       id="path3277"
       inkscape:connector-curvature="0"
       sodipodi:nodetypes="cccsccccscccccc" />
    <path
       d="m 1230,2055 c -8,-10 -10,-29 -6,-57 7,-43 -3,-99 -35,-202 -11,-33 -19,-68 -19,-77 0,-10 -7,-22 -17,-27 -25,-14 -30,-111 -8,-146 26,-40 53,-51 74,-32 10,9 30,16 46,16 16,0 26,3 22,6 -3,4 3,14 14,23 14,12 24,42 35,110 15,86 15,97 0,144 -9,28 -21,82 -27,121 -14,88 -23,112 -47,125 -15,8 -23,7 -32,-4 z"
       id="path3281"
       inkscape:connector-curvature="0" />
    <path
       d="m 4020.1178,1542.368 c 7.4377,-79.7738 27.4503,-95.5133 47.2712,-90.1607 19.4066,6.704 -7.1051,2.3496 7.4594,85.1894 8.3854,49.891 14.894,96.248 13.2917,103.8876 -1.1879,6.2884 13.7018,48.5659 17.9244,56.5173 -14.9703,57.2643 -92.2469,-96.5859 -85.9467,-155.4336 z"
       id="path3287"
       inkscape:connector-curvature="0"
       sodipodi:nodetypes="cccccc" />
    <path
       d="m 3890,1494 c -40,-47 -80,-132 -80,-167 0,-18 -6,-56 -14,-83 -8,-27 -17,-71 -21,-99 -5,-44 -3,-53 20,-79 14,-16 25,-33 25,-38 0,-6 20,-33 45,-61 25,-29 45,-58 45,-67 0,-8 7,-1 16,15 28,51 30,165 5,245 -29,89 -33,189 -13,263 14,52 14,59 0,73 -13,13 -16,13 -28,-2 z"
       id="path3293"
       inkscape:connector-curvature="0" />
    <path
       d="m 3983,1485 c -27,-19 -38,-125 -22,-204 6,-31 17,-85 24,-121 7,-36 11,-89 8,-117 -5,-50 -4,-55 31,-93 43,-48 45,-45 72,77 15,72 16,91 4,157 -9.0337,22.5345 -17.8352,94.4478 -29,106 -14.328,43.4884 -31.9109,90.195 -38,130 -3,25 -11,53 -18,62 -10,15 -14,16 -32,3 z"
       id="path3295"
       inkscape:connector-curvature="0"
       sodipodi:nodetypes="ccscccccccc" />
    <path
       d="m 997,1412 c -24,-26 -25,-320 -1,-407 9,-33 18,-71 21,-85 2,-14 8,-34 12,-45 5,-11 16,-60 25,-108 22,-111 59,-187 92,-187 13,0 24,5 24,11 0,5 5,7 10,4 17,-10 12,94 -5,111 -11,11 -15,37 -15,90 0,54 -3,73 -12,72 -8,-2 -12,5 -10,17 1,11 4,64 7,119 3,84 1,104 -16,134 -10,20 -19,43 -19,50 0,7 -6,23 -14,35 -7,12 -19,54 -26,94 -9,50 -20,79 -35,93 -21,20 -22,20 -38,2 z"
       id="path3299"
       inkscape:connector-curvature="0" />
    <path
       id="path3311"
       d="m 3950.6779,908.48435 c -24,-29 -26,-83 -4,-129 55.0557,-126.619 96.8266,-518.77215 112,-503 10,12 12,56 7,190 -3,96 -9,180 -14,187 -4,7 -8,56 -8,108 0,87 -2,95 -22,105 -12,6 -30,22 -40,34 -17,20 -20,21 -31,8 z m -180,81 c -18,-18 -14,-59 7,-82 11,-12 38,-77 61,-145 23,-69 48,-137 55,-152 8,-15 17,-54 19,-86 16,-205 20,-233 33,-245 11,-9 45.851,-43.06259 53.851,-31.06259 111.6164,-29.10492 29.296,175.51569 34.9087,362.77347 1,21 -9.2644,28.22653 -18.2644,36.22653 -8,7 53.2308,64.83606 -15,85.60954 -6.706,2.0417 2.851,-22.41431 -30.149,43.58569 -33,66 -162.3463,187.86736 -162.3463,192.86736 0,19 -26,32.00005 -38,20 z"
       inkscape:connector-curvature="0"
       sodipodi:nodetypes="cccccssccsccccccccssss" />
  </g>
  <path
     style="fill:#000000;stroke:none"
     d="m 187.42846,64.386913 c 1.63977,1.437026 5.32926,3.695209 7.99389,5.02959 6.55909,3.079342 8.81378,7.390419 10.0436,19.502495 0.92238,8.724798 0.92238,9.443308 -1.12734,11.393562 -1.74226,1.74496 -2.45966,1.95025 -4.61186,0.92381 -1.4348,-0.61587 -3.79197,-3.181994 -5.32926,-5.542822 -6.25163,-10.161826 -10.45354,-15.70464 -16.70517,-21.965966 -6.55909,-6.569262 -6.55909,-6.671907 -4.61186,-8.622156 1.12734,-1.129092 4.09943,-2.360828 6.66157,-2.668762 3.99695,-0.513224 5.0218,-0.307935 7.68643,1.950249 z"
     id="path3165-1"
     inkscape:connector-curvature="0" />
  <path
     style="fill:#000000;stroke:none"
     d="m 166.52137,68.595346 c 1.4348,0.615868 3.68949,2.463473 4.91931,4.003144 1.33232,1.642315 4.09944,4.003143 6.25164,5.440169 2.1522,1.334381 5.12428,4.208433 6.55908,6.363971 1.4348,2.052895 3.27955,4.824302 4.20192,6.056038 1.74226,2.463473 2.8696,8.622158 1.4348,8.211578 -0.51243,-0.10265 -2.97209,1.847604 -5.43174,4.413724 -5.94418,6.05604 -7.37898,7.18513 -10.96598,8.21158 -7.07152,2.05289 -22.13693,1.02645 -26.03138,-1.64231 -2.04971,-1.43703 -4.10891,-3.1864 -5.03128,-13.656162 -0.51243,-5.132235 -0.20496,-8.626558 1.43481,-12.424412 1.22983,-2.668762 -2.07024,-3.691196 1.53412,-5.848552 2.98807,-1.788481 5.34189,-4.099177 10.36369,-6.56265 2.76712,-1.231737 5.63672,-2.566118 6.45661,-2.976697 0.81988,-0.410579 2.76711,-0.205289 4.3044,0.410579 z"
     id="path3171-7"
     inkscape:connector-curvature="0"
     sodipodi:nodetypes="cccccccccccscsc" />
  <path
     style="fill:#000000;stroke:none"
     d="m 197.57455,102.36546 c 1.12735,0.71851 1.94723,1.95025 1.74226,2.87405 -0.20497,0.9238 0.81989,3.48992 2.25469,5.54282 1.74225,2.56611 2.66463,5.33752 2.76711,8.10893 0,2.36083 0.51243,6.46661 1.02486,9.34067 2.8696,14.06232 1.12734,20.42629 -3.89446,14.37025 -8.81377,-10.67504 -11.58089,-15.19141 -11.58089,-19.09191 0,-2.15554 -0.61491,-7.28777 -1.22983,-11.29092 -1.22983,-7.18513 -1.22983,-7.39042 1.12734,-9.23802 2.66463,-2.15554 4.71435,-2.36083 7.78892,-0.61587 z"
     id="path3183-4"
     inkscape:connector-curvature="0" />
  <path
     style="fill:#000000;stroke:none"
     d="m 209.15544,108.52414 c 1.84474,2.15554 5.32926,19.70779 5.32926,26.68763 0,6.87719 -1.4348,9.75125 -3.79197,7.801 -0.81989,-0.71852 -1.33232,-3.38728 -1.33232,-6.97985 0,-3.18198 -0.92237,-10.16182 -2.04971,-15.3967 -2.45966,-11.29092 -1.63977,-16.42316 1.84474,-12.11208 z"
     id="path3185-0"
     inkscape:connector-curvature="0" />
  <path
     style="fill:#000000;stroke:none"
     d="m 185.17378,110.16646 c 0.81988,1.33438 -1.02486,18.47605 -2.35718,21.96597 -0.61491,1.64231 -1.12734,4.41372 -1.12734,6.15868 0,1.8476 -0.92237,6.26132 -2.04972,9.95654 -2.56214,8.5195 -2.56214,16.52579 0,23.40299 3.07458,8.10892 2.76712,10.46976 -2.97208,22.58183 -0.92237,2.15553 -10.04361,6.6719 -11.78586,6.05604 -1.22983,-0.51323 -1.63978,-2.15555 -1.63978,-7.18513 0,-3.59257 0.40995,-6.8772 0.92238,-7.49306 2.45965,-2.46348 3.27954,-22.37656 1.53728,-35.82301 -0.61491,-4.51636 -0.92237,-14.37025 -0.61491,-21.86332 l 0.40994,-13.5491 5.32926,0 c 4.09943,0 6.14915,-0.61587 8.81377,-2.56612 3.79198,-2.7714 4.71435,-3.07934 5.53424,-1.64231 z"
     id="path3189-9"
     inkscape:connector-curvature="0" />
  <path
     style="fill:#000000;stroke:none"
     d="m 149.61122,113.14316 c 2.8696,1.02644 5.63672,2.05289 6.04666,2.46347 0.40994,0.51322 2.04971,0.82116 3.68949,0.82116 l 2.8696,0 0,8.62215 c 0,4.72166 -0.30746,9.95654 -0.61492,11.7015 l -0.61491,3.18198 -3.89446,-3.07934 c -3.07457,-2.46347 -5.22677,-3.28463 -10.24857,-3.69521 l -4.49991,-1.23394 0.20182,-6.36617 c 0.40994,-3.18199 -0.41626,-6.6675 -0.41626,-9.43891 -0.10249,-5.44017 -0.20497,-5.33752 7.48146,-2.97669 z"
     id="path3195-4"
     inkscape:connector-curvature="0"
     sodipodi:nodetypes="ccscscccccccc" />
  <path
     style="fill:#000000;stroke:none"
     d="m 150.43111,136.64879 c 1.12734,0.30794 4.20191,2.15554 6.86654,4.20844 4.3044,3.28463 4.91932,4.20843 4.91932,7.49306 0,4.10579 -1.12735,5.02959 -6.45661,5.02959 -3.68948,0 -10.0436,-2.0529 -12.1958,-3.9005 -2.04972,-1.64232 -3.27954,-11.59885 -1.53729,-12.72794 1.33232,-0.82116 5.12429,-0.92381 8.40384,-0.10265 z"
     id="path3201-8"
     inkscape:connector-curvature="0" />
  <path
     style="fill:#000000;stroke:none"
     d="m 193.78258,143.93657 c 0.10248,0.71851 1.33231,2.36082 2.76711,3.69521 2.04972,1.95024 2.66463,3.79785 3.38203,10.46976 0.61492,5.02958 1.84475,9.95653 3.38203,12.72794 1.33232,2.56612 2.25469,4.92694 2.1522,5.33752 -0.10248,0.51322 0.30746,0.82116 0.92238,0.82116 0.51243,0 0.7174,0.41058 0.40994,1.02644 -0.30746,0.51323 -0.20497,1.02645 0.30746,1.02645 0.51243,0 0.92237,0.61587 0.92237,1.33439 0,0.82115 1.63977,3.90049 3.68949,6.97984 1.94722,3.07933 4.40688,7.5957 5.43174,10.16182 1.02486,2.56611 2.8696,6.36397 4.20192,8.51951 1.94723,3.18199 2.25468,4.20843 1.22983,5.44017 -1.94723,2.36082 -5.32926,-1.53967 -9.01875,-10.46976 -1.74226,-4.20843 -4.81683,-9.8539 -6.76406,-12.6253 -4.40689,-6.15868 -11.78586,-22.47919 -11.78586,-26.1744 0,-1.53966 -0.51243,-4.72166 -1.12735,-7.18513 -0.61491,-2.36082 -0.92237,-6.15868 -0.61491,-8.41686 0.20497,-2.15554 0.40994,-3.38727 0.51243,-2.66876 z"
     id="path3207-8"
     inkscape:connector-curvature="0" />
  <path
     style="fill:#000000;stroke:none"
     d="m 217.55927,147.2212 c 1.22983,1.23174 3.38203,4.8243 4.81683,8.10893 1.33232,3.18198 2.8696,6.56926 3.48452,7.49306 0.51243,1.02645 0.92237,4.72165 0.92237,8.21157 0,6.56927 1.74226,14.98613 3.99695,19.19456 1.02485,1.74496 1.02485,2.56612 0,3.79786 -1.74226,2.15554 -4.50938,-0.61587 -6.96904,-7.18513 -1.12734,-2.87405 -3.17705,-7.69835 -4.61185,-10.57241 -4.30441,-8.82744 -6.66158,-16.83372 -6.55909,-23.09505 0,-7.18513 1.63977,-9.23802 4.91931,-5.95339 z"
     id="path3209-2"
     inkscape:connector-curvature="0" />
  <path
     style="fill:#000000;stroke:none"
     d="m 209.36041,163.43906 c 3.68949,5.23488 6.66158,10.98298 8.81378,17.14166 1.74226,5.0296 3.68949,10.5724 4.40689,12.11208 1.33231,3.48992 1.4348,8.62216 0.10248,9.44331 -1.53729,0.92381 -3.48451,-3.18199 -8.19886,-16.93638 -2.45966,-7.08248 -5.0218,-13.34381 -5.84169,-13.95968 -0.7174,-0.61586 -1.33231,-1.43702 -1.33231,-1.8476 0,-0.41058 -1.12735,-2.46347 -2.56215,-4.51637 -2.35717,-3.48991 -3.48451,-9.4433 -1.84474,-9.4433 0.51243,0 3.38203,3.59256 6.4566,8.00628 z"
     id="path3219-4"
     inkscape:connector-curvature="0" />
  <path
     style="fill:#000000;stroke:none"
     d="m 155.04296,156.15129 c 7.48146,0.51322 9.22372,2.25818 9.22372,8.93008 0,2.87405 -0.61491,6.36397 -1.33231,7.69835 -1.12735,2.36084 -1.63977,2.46348 -9.94112,2.25819 -4.81683,-0.10265 -9.01874,-0.71851 -9.32621,-1.33439 -0.92237,-1.43702 -0.51242,-15.3967 0.40995,-17.03901 0.51243,-0.61587 1.84474,-1.12909 3.07457,-1.02645 1.22983,0.10264 4.81683,0.30794 7.8914,0.51323 z"
     id="path3221-5"
     inkscape:connector-curvature="0" />
  <path
     style="fill:#000000;stroke:none"
     d="m 159.8598,179.24634 c 1.33231,0.61587 2.35717,1.53967 2.35717,2.0529 0,1.23173 -2.35717,5.33752 -3.587,6.15868 -0.61492,0.41058 -1.53729,3.9005 -2.15221,7.69835 -1.63977,9.75125 -3.07457,16.5258 -4.71434,21.3501 -1.12735,3.59256 -1.74226,4.10579 -4.71435,4.41372 -3.99694,0.41058 -3.587,2.87405 -3.17705,-23.91621 0,-1.1291 -0.10249,-5.74811 -0.20498,-10.26448 l -0.30745,-8.21157 7.174,-0.20529 c 3.89446,-0.10265 8.09638,0.30794 9.32621,0.9238 z"
     id="path3239-5"
     inkscape:connector-curvature="0" />
  <path
     style="fill:#000000;stroke:none"
     d="m 182.30417,218.25133 c 0.40995,0.71851 0.81989,2.46347 0.81989,3.9005 0.10249,1.43702 0.51243,3.18198 1.02486,3.90049 0.40994,0.82116 0.51243,4.51637 0.20497,8.21158 -0.40994,3.79786 -0.10249,14.67819 0.61491,24.3268 1.74226,25.25059 1.53729,29.35638 -2.25468,38.49176 -1.02486,2.56612 -2.1522,5.7481 -2.45966,7.18513 -1.12734,4.72165 -2.25469,5.7481 -5.0218,4.20843 -3.38203,-1.74496 -6.86655,-13.03587 -8.50632,-27.30349 -0.81989,-6.26133 -1.63977,-12.83058 -2.04971,-14.67819 -0.40995,-2.15554 -0.10249,-4.51637 1.02485,-6.77455 0.92237,-1.95025 1.63977,-3.9005 1.63977,-4.41372 0,-0.51323 1.33232,-2.25819 3.07458,-3.69521 1.63977,-1.53967 3.07457,-3.69521 3.07457,-4.72166 0,-1.02644 1.4348,-4.61901 3.17706,-7.90364 2.56214,-5.02959 3.07457,-7.08248 3.07457,-13.44646 0,-7.18513 0.92237,-9.95654 2.56214,-7.28777 z"
     id="path3265-1"
     inkscape:connector-curvature="0" />
  <path
     style="fill:#000000;stroke:none"
     d="m 163.24182,273.9874 c 0.81989,1.02645 1.02486,2.9767 0.61492,5.85075 -0.7174,4.41373 0.30746,10.16183 3.587,20.73423 1.12734,3.38728 1.94723,6.97984 1.94723,7.90364 0,1.02645 0.7174,2.25818 1.74226,2.77141 2.56214,1.43703 3.07457,11.39357 0.81988,14.98613 -2.66463,4.10579 -5.43174,5.23488 -7.58394,3.28463 -1.02486,-0.9238 -3.07457,-1.64231 -4.71435,-1.64231 -1.63977,0 -2.66463,-0.30794 -2.25468,-0.61588 0.30745,-0.41057 -0.30746,-1.43702 -1.4348,-2.36082 -1.4348,-1.23174 -2.45966,-4.31108 -3.587,-11.29092 -1.53729,-8.82745 -1.53729,-9.95654 0,-14.78084 0.92237,-2.87405 2.1522,-8.41686 2.76711,-12.42001 1.4348,-9.03273 2.35717,-11.49621 4.81683,-12.83058 1.53729,-0.82116 2.35717,-0.71852 3.27954,0.41057 z"
     id="path3281-1"
     inkscape:connector-curvature="0" />
  <path
     style="fill:#000000;stroke:none"
     d="m 187.121,339.98795 c 2.45966,2.66876 2.56215,32.8463 0.10249,41.77639 -0.92237,3.38728 -1.84474,7.28778 -2.1522,8.7248 -0.20497,1.43702 -0.81989,3.48992 -1.22983,4.61902 -0.51243,1.12908 -1.63977,6.15868 -2.56214,11.08562 -2.25469,11.39356 -6.04666,19.19456 -9.42869,19.19456 -1.33232,0 -2.45966,-0.51322 -2.45966,-1.12909 0,-0.51322 -0.51243,-0.71851 -1.02486,-0.41058 -1.74226,1.02645 -1.22983,-9.6486 0.51243,-11.39356 1.12734,-1.12909 1.53729,-3.79786 1.53729,-9.23803 0,-5.54281 0.30745,-7.49306 1.22983,-7.39041 0.81988,0.20529 1.22983,-0.51323 1.02485,-1.74496 -0.10248,-1.1291 -0.40994,-6.56927 -0.7174,-12.21472 -0.30745,-8.62216 -0.10248,-10.67505 1.63978,-13.75439 1.02485,-2.0529 1.94723,-4.41372 1.94723,-5.13224 0,-0.71851 0.61491,-2.36083 1.4348,-3.59256 0.7174,-1.23174 1.94722,-5.54282 2.66462,-9.6486 0.92238,-5.13224 2.04972,-8.10894 3.58701,-9.54596 2.1522,-2.0529 2.25468,-2.0529 3.89445,-0.20529 z"
     id="path3299-5"
     inkscape:connector-curvature="0" />
  <path
     style="fill:#000000;stroke:#000000;stroke-width:1px;stroke-linecap:butt;stroke-linejoin:miter;stroke-opacity:1"
     d="m 515.3125,200.875 -5.40625,5.40625 -3.875,6.1875 -3.84375,10.03125 -3.875,6.96875 6.1875,10.03125 6.1875,10.03125 6.9375,8.5 3.875,7.75 3.09375,3.84375 1.79273,1.00245 2.26977,-1.4087 3.0625,-3.875 3.875,-7.71875 6.96875,-8.5 6.15625,-10.03125 6.1875,-10.0625 -3.84375,-6.9375 -3.875,-10.0625 -3.875,-6.1875 -5.40625,-5.40625 -11,-11.71875 c -3.41579,2.82904 -7.99225,8.31942 -11.59375,12.15625 z"
     transform="scale(0.8,0.8)"
     id="path3472"
     inkscape:connector-curvature="0"
     sodipodi:nodetypes="ccccccccccccccccccccccc" />
  <path
     style="fill:#000000;stroke:none"
     d="m 431.61739,51.274215 c 1.94723,0.71851 4.50937,1.43702 5.7392,1.43702 1.12734,0.10265 2.97209,1.02645 3.99695,2.15554 1.02485,1.129094 3.89445,2.56612 6.35411,3.181989 2.35717,0.615868 4.91932,1.744959 5.53423,2.566116 0.61492,0.821158 2.04972,1.437027 3.17706,1.437027 2.66463,0 7.99389,3.181985 7.99389,4.721656 0,0.718513 -3.07457,3.387275 -6.96903,5.953393 -3.79197,2.668762 -8.09638,5.748103 -9.73615,6.97984 l -2.76711,2.258183 -2.8696,-2.771407 c -1.53729,-1.539671 -6.04666,-5.850748 -10.04361,-9.648602 -3.99694,-3.900499 -8.09637,-8.51951 -9.22372,-10.367115 -1.74225,-3.079341 -1.74225,-3.592564 -0.40994,-6.15868 1.84474,-3.28463 4.3044,-3.69521 9.22372,-1.74496 z"
     id="path3159-7"
     inkscape:connector-curvature="0" />
  <path
     style="fill:#000000;stroke:none"
     d="m 472.91915,68.0053 c 2.8696,1.231736 9.53117,8.108931 13.73309,14.370258 l 3.89446,5.850748 0,12.317364 c 0,6.77455 0.30745,12.83059 0.7174,13.44646 0.40994,0.71851 0.10248,1.8476 -0.81989,2.56612 -1.74226,1.43702 -3.07457,0.30793 -9.12123,-7.90365 -3.79197,-5.13223 -5.53423,-6.46661 -9.42869,-7.49306 -8.40383,-2.360829 -22.54687,-16.833732 -19.67727,-20.221008 0.61492,-0.821157 1.63978,-1.437026 2.15221,-1.437026 0.61491,0 2.76711,-1.334381 4.81683,-2.976696 2.04971,-1.53967 5.0218,-3.592565 6.76406,-4.516367 1.63977,-0.923803 2.66463,-1.642315 2.1522,-1.74496 -0.51243,0 -0.30746,-0.718513 0.40994,-1.539671 1.4348,-1.642315 1.74226,-1.74496 4.40689,-0.718512 z"
     id="path3173-6"
     inkscape:connector-curvature="0" />
  <path
     style="fill:#000000;stroke:none"
     d="M 578.625 127.3125 C 578.58107 127.4431 578.59321 127.59483 578.53125 127.71875 C 578.44985 127.88163 578.12877 127.58999 578 127.71875 C 577.87124 127.84752 578.12877 128.15248 578 128.28125 C 577.87124 128.41001 577.56626 128.15248 577.4375 128.28125 C 577.30873 128.41001 577.60038 128.73106 577.4375 128.8125 C 577.11175 128.97538 576.6695 128.64962 576.34375 128.8125 C 576.34375 129.35881 576.38927 129.42053 576.34375 129.375 C 576.29823 129.32947 576.1767 129.1929 575.8125 129.375 C 575.58216 129.49018 575.48035 129.79108 575.25 129.90625 C 575.08713 129.98765 574.84752 129.77748 574.71875 129.90625 C 574.53665 130.08835 574.5028 130.22714 574.53125 130.3125 C 574.5597 130.39786 574.65046 130.44599 574.71875 130.46875 C 574.85533 130.51427 574.88466 130.46875 574.15625 130.46875 C 574.15625 130.87594 573.91293 131.27457 573.625 131.5625 C 573.49624 131.69127 573.2446 131.5625 573.0625 131.5625 C 572.6983 131.5625 572.2945 131.39962 571.96875 131.5625 C 571.80587 131.6439 572.09752 131.96499 571.96875 132.09375 C 571.83999 132.22252 571.56626 131.96499 571.4375 132.09375 C 571.30873 132.22252 571.56626 132.52748 571.4375 132.65625 C 571.17997 132.91378 570.60128 132.39872 570.34375 132.65625 C 570.21498 132.78501 570.47251 133.05874 570.34375 133.1875 C 570.21498 133.31627 569.91001 133.05874 569.78125 133.1875 C 569.65248 133.31627 569.91001 133.58998 569.78125 133.71875 C 569.65248 133.84751 569.37877 133.58998 569.25 133.71875 C 569.12124 133.84751 569.37877 134.15248 569.25 134.28125 C 569.12124 134.41001 568.81626 134.15248 568.6875 134.28125 C 568.55873 134.41001 568.85037 134.73107 568.6875 134.8125 C 568.36175 134.97538 567.88253 134.55497 567.625 134.8125 C 567.36747 135.07003 567.78788 135.5805 567.625 135.90625 C 567.5436 136.06913 567.19126 135.77749 567.0625 135.90625 C 566.93373 136.03502 567.19126 136.33999 567.0625 136.46875 C 566.93373 136.59752 566.66002 136.33999 566.53125 136.46875 C 566.27372 136.72628 566.78878 137.30497 566.53125 137.5625 C 566.40249 137.69127 566.09751 137.43374 565.96875 137.5625 C 565.83998 137.69127 566.09751 137.96498 565.96875 138.09375 C 565.83998 138.22251 565.61961 138.09375 565.4375 138.09375 C 565.4375 138.27585 565.56627 138.52749 565.4375 138.65625 C 565.30874 138.78502 565.00377 138.52749 564.875 138.65625 C 564.74624 138.78502 565.00377 139.05874 564.875 139.1875 C 564.74624 139.31627 564.42519 139.02463 564.34375 139.1875 C 564.18087 139.51326 564.60128 140.02372 564.34375 140.28125 C 564.08622 140.53878 563.57575 140.11838 563.25 140.28125 C 563.08712 140.36265 563.37876 140.71498 563.25 140.84375 C 562.99247 141.10128 562.41378 140.58622 562.15625 140.84375 C 562.02749 140.97251 562.28502 141.24623 562.15625 141.375 C 562.02479 141.50646 560.1002 141.24354 559.96875 141.375 C 559.83998 141.50376 560.09751 141.80874 559.96875 141.9375 C 559.83729 142.06896 557.91271 141.80605 557.78125 141.9375 C 557.65249 142.06627 557.91002 142.33998 557.78125 142.46875 C 557.5081 142.7419 556.39815 142.1956 556.125 142.46875 C 555.99623 142.59751 556.25376 142.90249 556.125 143.03125 C 555.86747 143.28878 555.28878 142.77372 555.03125 143.03125 C 554.90249 143.16002 555.19413 143.48106 555.03125 143.5625 C 554.67782 143.73921 553.07124 143.36625 552.875 143.5625 C 552.74623 143.69126 553.00376 143.99623 552.875 144.125 C 552.74623 144.25376 552.4946 144.125 552.3125 144.125 C 552.00782 144.125 549.61568 144.1031 549.59375 144.125 C 549.33622 144.38253 549.75663 144.89299 549.59375 145.21875 C 549.51235 145.38162 549.21335 145.21875 549.03125 145.21875 C 548.86393 145.21875 548.3067 145.21277 547.75 145.21875 C 544.40528 156.06758 540.58747 167.00133 539 169.1875 C 537.59081 171.3687 534.7966 174.8188 532.875 177 C 527.4945 182.90206 527.59845 183.28661 539 192.78125 C 545.66156 198.2984 547.4629 200.62075 550.28125 208.0625 C 554.38069 218.45527 557.34065 223.97568 557.46875 221.28125 C 557.46875 220.1265 558.86275 217.15986 560.65625 214.59375 C 562.44975 212.02763 565.66593 204.72119 567.84375 198.5625 C 570.14968 192.40381 572.33132 186.61029 572.84375 185.96875 C 574.50915 183.53095 577.94078 166.73504 579.09375 155.1875 C 579.73429 148.77221 581.15643 141.08265 582.4375 137.875 L 584.625 132.09375 L 581.15625 129.53125 C 580.45826 129.02442 579.45376 127.99791 578.625 127.3125 z "
     id="path3071"
     transform="scale(0.8,0.8)" />
  <path
     style="fill:#000000;stroke:none"
     d="M 561.5 109.125 C 561.20375 109.23326 560.88355 109.46049 560.53125 109.78125 C 559.5064 110.55108 558.75 111.94561 558.75 112.84375 C 558.75 113.61359 557.59668 115.40444 556.1875 116.6875 C 554.77831 117.97056 553.625 120.54747 553.625 122.34375 C 553.625 124.95021 550.88323 135.05591 547.75 145.21875 C 548.3067 145.21277 548.86393 145.21875 549.03125 145.21875 C 549.21335 145.21875 549.51235 145.38162 549.59375 145.21875 C 549.75663 144.89299 549.33622 144.38253 549.59375 144.125 C 549.61568 144.1031 552.00782 144.125 552.3125 144.125 C 552.4946 144.125 552.74623 144.25376 552.875 144.125 C 553.00376 143.99623 552.74623 143.69126 552.875 143.5625 C 553.07124 143.36625 554.67782 143.73921 555.03125 143.5625 C 555.19413 143.48106 554.90249 143.16002 555.03125 143.03125 C 555.28878 142.77372 555.86747 143.28878 556.125 143.03125 C 556.25376 142.90249 555.99623 142.59751 556.125 142.46875 C 556.39815 142.1956 557.5081 142.7419 557.78125 142.46875 C 557.91002 142.33998 557.65249 142.06627 557.78125 141.9375 C 557.91271 141.80605 559.83729 142.06896 559.96875 141.9375 C 560.09751 141.80874 559.83998 141.50376 559.96875 141.375 C 560.1002 141.24354 562.02479 141.50646 562.15625 141.375 C 562.28502 141.24623 562.02749 140.97251 562.15625 140.84375 C 562.41378 140.58622 562.99247 141.10128 563.25 140.84375 C 563.37876 140.71498 563.08712 140.36265 563.25 140.28125 C 563.57575 140.11838 564.08622 140.53878 564.34375 140.28125 C 564.60128 140.02372 564.18087 139.51326 564.34375 139.1875 C 564.42519 139.02463 564.74624 139.31627 564.875 139.1875 C 565.00377 139.05874 564.74624 138.78502 564.875 138.65625 C 565.00377 138.52749 565.30874 138.78502 565.4375 138.65625 C 565.56627 138.52749 565.4375 138.27585 565.4375 138.09375 C 565.61961 138.09375 565.83998 138.22251 565.96875 138.09375 C 566.09751 137.96498 565.83998 137.69127 565.96875 137.5625 C 566.09751 137.43374 566.40249 137.69127 566.53125 137.5625 C 566.78878 137.30497 566.27372 136.72628 566.53125 136.46875 C 566.66002 136.33999 566.93373 136.59752 567.0625 136.46875 C 567.19126 136.33999 566.93373 136.03502 567.0625 135.90625 C 567.19126 135.77749 567.5436 136.06913 567.625 135.90625 C 567.78788 135.5805 567.36747 135.07003 567.625 134.8125 C 567.88253 134.55497 568.36175 134.97538 568.6875 134.8125 C 568.85037 134.73107 568.55873 134.41001 568.6875 134.28125 C 568.81626 134.15248 569.12124 134.41001 569.25 134.28125 C 569.37877 134.15248 569.12124 133.84751 569.25 133.71875 C 569.37877 133.58998 569.65248 133.84751 569.78125 133.71875 C 569.91001 133.58998 569.65248 133.31627 569.78125 133.1875 C 569.91001 133.05874 570.21498 133.31627 570.34375 133.1875 C 570.47251 133.05874 570.21498 132.78501 570.34375 132.65625 C 570.60128 132.39872 571.17997 132.91378 571.4375 132.65625 C 571.56626 132.52748 571.30873 132.22252 571.4375 132.09375 C 571.56626 131.96499 571.83999 132.22252 571.96875 132.09375 C 572.09752 131.96499 571.80587 131.6439 571.96875 131.5625 C 572.2945 131.39962 572.6983 131.5625 573.0625 131.5625 C 573.2446 131.5625 573.49624 131.69127 573.625 131.5625 C 573.91293 131.27457 574.15625 130.87594 574.15625 130.46875 C 574.15625 130.46875 574.15625 130.46875 574.15625 130.46875 C 574.88466 130.46875 574.85533 130.51427 574.71875 130.46875 C 574.65046 130.44599 574.5597 130.39786 574.53125 130.3125 C 574.5028 130.22714 574.53665 130.08835 574.71875 129.90625 C 574.84752 129.77748 575.08713 129.98765 575.25 129.90625 C 575.48035 129.79108 575.58216 129.49018 575.8125 129.375 C 576.1767 129.1929 576.29823 129.32947 576.34375 129.375 C 576.38927 129.42053 576.34375 129.35881 576.34375 128.8125 C 576.6695 128.64962 577.11175 128.97538 577.4375 128.8125 C 577.60038 128.73106 577.30873 128.41001 577.4375 128.28125 C 577.56626 128.15248 577.87124 128.41001 578 128.28125 C 578.12877 128.15248 577.87124 127.84752 578 127.71875 C 578.12877 127.58999 578.44985 127.88163 578.53125 127.71875 C 578.59321 127.59483 578.58107 127.4431 578.625 127.3125 C 573.36944 122.96599 566.4375 116.15371 566.4375 115.15625 C 566.4375 114.51472 565.52797 112.72717 564.375 111.1875 C 563.12596 109.45537 562.38875 108.80023 561.5 109.125 z "
     id="path3177-1"
     transform="scale(0.8,0.8)" />
  <path
     style="fill:#000000;stroke:none"
     d="m 494.1337,155.86917 c 0,0.71852 0.61491,1.95025 1.4348,2.56612 1.74226,1.43702 7.78892,13.65174 7.78892,15.70464 0,0.82116 -0.51243,1.95025 -1.22983,2.66876 -1.4348,1.43703 -4.91932,-1.12909 -4.91932,-3.79785 -0.10249,-2.66877 -2.8696,-5.54282 -6.35412,-6.77455 -2.8696,-0.9238 -3.587,-0.71851 -5.94417,1.53967 -1.53729,1.43702 -4.61186,3.07934 -6.96903,3.69521 -3.99695,1.02645 -4.20192,1.02645 -4.91932,-1.53967 -0.40994,-1.43703 -0.7174,-2.9767 -0.61491,-3.48992 0.10248,-0.41058 -0.30746,-0.71852 -0.81989,-0.71852 -0.61491,0 -1.02486,-1.43702 -1.02486,-3.07934 0,-3.48992 0.61492,-3.69521 3.89446,-1.43702 2.66463,1.8476 7.07152,1.23173 10.65852,-1.53968 1.33232,-1.02644 3.89446,-2.66876 5.63672,-3.59256 2.76711,-1.43703 3.38203,-1.43703 3.38203,-0.20529 z"
     id="path3217-2"
     inkscape:connector-curvature="0" />
  <path
     style="fill:#000000;stroke:none"
     d="m 459.39103,163.25959 c 0.7174,0.9238 1.63977,4.00315 2.04971,6.97984 0.40995,2.87405 1.12735,6.46662 1.4348,8.10893 1.4348,5.44017 -3.07457,7.39042 -10.24857,4.31108 -5.0218,-2.0529 -5.32926,-3.79786 -1.63977,-8.93009 1.63977,-2.46347 3.38203,-5.64546 3.68948,-7.18513 1.02486,-4.00314 2.97209,-5.33752 4.71435,-3.28463 z"
     id="path3225-3"
     inkscape:connector-curvature="0" />
  <path
     style="fill:#000000;stroke:none"
     d="m 454.88165,185.63614 c 3.48452,1.23173 7.27649,3.07934 8.40384,4.10579 2.97208,2.66876 8.30134,13.34381 8.30134,16.62844 0,1.64231 0.7174,5.02959 1.53729,7.49306 1.22983,3.38727 1.33231,4.72166 0.40994,5.85075 -1.74226,2.15554 -3.68949,0.10264 -7.174,-7.28778 -3.79197,-8.21158 -10.45355,-16.01257 -15.27038,-18.16811 -2.1522,-0.9238 -4.71434,-2.87405 -5.7392,-4.41372 -1.63977,-2.46347 -1.63977,-2.77141 0.10249,-4.61901 2.1522,-2.46347 1.53728,-2.46347 9.42868,0.41058 z"
     id="path3245-6"
     inkscape:connector-curvature="0" />
  <path
     style="fill:#000000;stroke:none"
     d="m 452.11454,331.5969 c 4.09943,4.82431 8.19886,13.54911 8.19886,17.14167 0,1.84761 0.61491,5.7481 1.4348,8.51951 0.81989,2.77141 1.74226,7.28778 2.1522,10.16182 0.51243,4.51637 0.30746,5.44018 -2.04971,8.10894 -1.4348,1.64231 -2.56215,3.38727 -2.56215,3.9005 0,0.61587 -2.04971,3.38728 -4.61186,6.26132 -2.56214,2.9767 -4.61186,5.9534 -4.61186,6.8772 0,0.82116 -0.7174,0.10264 -1.63977,-1.53967 -2.8696,-5.23488 -3.07457,-16.93637 -0.51243,-25.14795 2.97209,-9.13538 3.38203,-19.39986 1.33232,-26.99556 -1.4348,-5.33753 -1.4348,-6.05604 0,-7.49306 1.33231,-1.33439 1.63977,-1.33439 2.8696,0.20528 z"
     id="path3293-8"
     inkscape:connector-curvature="0" />
  <path
     style="fill:#000000;stroke:none"
     d="m 442.58336,332.5207 c 2.76712,1.95026 3.89446,12.8306 2.25469,20.93952 -0.61491,3.182 -1.74226,8.7248 -2.45966,12.42002 -0.7174,3.69521 -1.12734,9.13538 -0.81988,12.00942 0.51243,5.13224 0.40994,5.64547 -3.17706,9.54596 -4.40689,4.92695 -4.61186,4.61901 -7.37898,-7.90364 -1.53728,-7.39042 -1.63977,-9.34067 -0.40994,-16.11522 0.7174,-4.31107 1.97404,-9.57795 2.38398,-9.57795 1.68282,-3.21272 1.2814,-5.24904 2.94528,-8.40585 0.51243,-0.20529 1.22983,-3.77687 1.53729,-6.24034 0.30745,-2.56612 1.12734,-5.44017 1.84474,-6.36398 1.02486,-1.53967 1.4348,-1.64231 3.27954,-0.30794 z"
     id="path3295-9"
     inkscape:connector-curvature="0"
     sodipodi:nodetypes="ccsccccccccc" />
  <g
     id="g3552">
    <path
       style="fill:#000000;stroke:#000000;stroke-width:1px;stroke-linecap:butt;stroke-linejoin:miter;stroke-opacity:1"
       d="m 519.1875,91.15625 -10.8125,9.28125 -5.40625,6.9375 0.75,7.75 4.65625,14.65625 4.625,20.875 6.96875,17 6.34375,7.78125 c 2.21339,-1.3662 5.18179,-5.99092 6.96875,-8.21875 l 6.9375,-17 4.65625,-20.84375 4.625,-14.6875 0.78125,-7.71875 L 544.875,100 534.0625,90.75 526.90625,84.3125 c -2.81232,1.696911 -5.50632,4.812774 -7.71875,6.84375 z"
       transform="scale(0.8,0.8)"
       id="path3470"
       inkscape:connector-curvature="0"
       sodipodi:nodetypes="ccccccccccccccccc" />
  </g>
  <path
     style="fill:#000000;stroke:none"
     d="m 184.95794,321.87238 c -0.51243,0.71851 -0.60995,-1.87695 -0.2,-1.15843 2.04971,3.28463 0.31945,13.15429 -3.575,20.75 -2.1522,4.20843 -4.5076,10.46008 -5.225,13.95 -0.7174,3.38727 -2.27266,7.48797 -3.4,8.925 -2.8696,3.6952 -3.89006,9.13093 -4.3,24.425 -0.51243,15.90992 -1.23771,22.58388 -2.775,25.15 -1.12735,1.74496 -1.32017,1.73967 -2.55,0.2 -1.4348,-1.95025 -0.71477,-17.22211 0.925,-19.275 0.40994,-0.61588 0.50994,-2.16827 0.1,-3.4 -0.51243,-1.12909 -0.40995,-7.79781 0,-14.675 1.02485,-14.47291 -0.10555,-22.58628 -4,-27 -1.33231,-1.64232 -2.44751,-3.38413 -2.55,-4 -0.20497,-2.77141 -0.73509,-5.33533 -1.35,-6.875 -0.40995,-0.9238 -0.0949,-2.15649 0.725,-2.875 1.22983,-0.9238 1.84269,-0.83174 3.175,0.4 1.53729,1.53967 2.05569,1.54496 6.975,-0.2 3.68949,-1.33439 5.52003,-2.56562 5.725,-3.9 0.20497,-1.12909 1.13011,-2.8762 1.95,-3.8 1.12734,-1.23174 1.43494,-2.98124 1.025,-5.65 -0.7174,-4.1058 1.76654,-5.21386 4.63614,-5.21386 2.89062,-6.25349 6.6793,-2.69008 4.68886,4.22229 z"
     id="path3077-1"
     inkscape:connector-curvature="0"
     sodipodi:nodetypes="cccccccccccccccccccccc" />
  <path
     style="fill:#000000;stroke:none"
     d="m 184.95794,219.56395 c 0.63274,0.13795 1.18371,-1.45904 2,-1.34818 5.02685,-1.75119 5.98507,6.28642 4.875,11.04818 -0.30746,1.02644 -0.11243,3.59446 0.4,5.75 2.76711,10.16182 3.89474,35.19995 2.05,45.875 -0.61491,4.00314 -1.51506,9.55095 -1.925,12.425 -1.19959,2.65192 -2.64637,18.14964 -5.525,18.35 -9.30472,2.16896 -3.30322,-5.26325 -2.075,-11.475 0.40994,-2.36084 1.04005,-4.10794 1.45,-3.8 0.40994,0.30793 1.01754,-1.94831 1.325,-4.925 0.30745,-2.87405 0.91505,-7.48124 1.325,-10.15 0.51243,-3.38728 0.32237,-5.44592 -0.6,-6.575 -1.74226,-1.95025 -2.35731,-24.53868 -1.025,-30.8 0.7174,-3.18199 0.60483,-5.64686 -0.625,-9.65 -1.07443,-6.57276 -2.20113,-9.46782 -1.85,-12.525 0.12524,-0.85715 0.1686,-1.52999 0.2,-2.2 z"
     id="path3070-7"
     inkscape:connector-curvature="0"
     sodipodi:nodetypes="ccccccccsccccccc" />
  <path
     style="fill:#000000;stroke:none"
     d="m 182.73294,192.93895 c 0.32026,0.0385 0.63633,0.5012 1.2,1.425 0.7174,1.02644 1.25,2.96826 1.25,4.2 0,1.23173 0.70263,2.97355 1.625,4 0.92049,1.03037 1.91923,5.16764 3.09442,11.57769 -1.76004,0.13635 -1.32345,1.71655 -4.51942,2.82231 -0.25681,0.0889 -0.36293,0.1211 -0.6,0.175 -0.36541,-1.59306 -1.24135,-3.28776 -3,-6.15 -3.48451,-5.74811 -3.57486,-6.26392 -2.55,-10.575 0.61491,-2.56612 1.6326,-5.4262 2.35,-6.35 0.51243,-0.76984 0.82973,-1.16349 1.15,-1.125 z"
     id="path3251-4"
     inkscape:connector-curvature="0"
     sodipodi:nodetypes="scsccsccccs" />
  <path
     style="fill:#000000;stroke:none"
     d="m 487.38085,154.17444 c 1.94723,-2.36083 3.587,-4.92695 3.587,-5.74811 1.65355,-3.40952 0.19705,0.37617 1.74068,-4.24488 0.7174,-2.36083 1.2314,-10.6386 0.71898,-15.97612 -0.61492,-7.59571 -0.81989,-8.31422 -3.38203,-9.34067 -1.4348,-0.51322 -4.20192,-2.0529 -6.14915,-3.28463 -3.17706,-2.0529 -3.587,-2.0529 -6.25163,-0.51323 -1.53729,1.02645 -3.48452,1.74496 -4.3044,1.74496 -0.7174,0 -2.25469,2.87406 -3.48452,6.97984 -1.74225,5.54282 -2.1522,9.13538 -1.94723,17.96283 0.20498,10.5724 0.40995,11.29092 2.97209,13.85703 2.1522,2.25819 3.07457,2.56612 4.50937,1.64232 0.92238,-0.61587 1.74226,-1.74496 1.74226,-2.56612 0,-0.82116 0.30746,-1.95025 0.7174,-2.46347 0.40994,-0.61587 1.22983,-6.97984 1.94723,-14.16497 0.92237,-9.44331 0.92237,-13.34381 0.10249,-14.26762 -0.81989,-1.12909 -0.61492,-1.74496 0.92237,-2.7714 1.22983,-0.71852 2.35717,-1.02645 2.66463,-0.71852 0.30745,0.30794 1.02486,4.51637 1.53728,9.54596 1.02486,9.54596 -0.20497,19.29721 -2.97208,23.40299 -0.7174,1.1291 -1.33232,2.77141 -1.33232,3.69521 0,2.9767 3.07457,1.74496 6.66158,-2.7714 z"
     id="path3199-0"
     inkscape:connector-curvature="0"
     sodipodi:nodetypes="cccccccsccccsccccsccsc" />
  <path
     style="fill:#000000;stroke:none"
     d="m 174.0747,200.40499 c 0.5893,-0.17963 1.01257,0.10781 1.525,0.775 1.02486,1.23174 0.5946,2.96896 -2.275,9.025 -1.94723,4.10579 -3.89006,8.61298 -4.3,10.05 -1.4348,5.13223 -5.5304,12.94302 -8.4,16.125 -2.76711,3.07935 -7.37017,8.79661 -8.6,14.75 -0.53471,2.67447 -2.37204,4.7011 -2.77734,7.168 -0.36644,1.59727 0.0126,2.49252 -1.22266,3.132 -3.68949,3.38727 -5.03246,0.4984 -4.725,-17.875 l 0.925,-11.275 4.3,-5.35 c 1.74226,-0.61587 4.3152,-1.94591 5.75,-3.075 2.66463,-2.15553 9.125,-11.80504 9.125,-13.55 0,-1.33438 2.97529,-2.75793 5.025,-2.45 0.81989,0.20529 1.20994,-0.3262 0.8,-1.25 -0.30746,-0.82116 0.63523,-2.66033 2.275,-4.2 1.22983,-1.18041 1.9857,-1.82037 2.575,-2 z"
     id="path3259-4"
     inkscape:connector-curvature="0"
     sodipodi:nodetypes="scccccccccccscccs" />
  <path
     inkscape:connector-curvature="0"
     style="fill:#000000;stroke:none"
     d="m 160.36935,245.74976 c 0.0308,0.0198 0.004,0.0271 0.05,0.05 0.18427,0.0921 0.45432,-0.14568 0.6,0 0.14568,0.14569 -0.0921,0.41573 0,0.6 0.0921,0.18428 0.47932,-0.14568 0.625,0 0.0728,0.0728 -0.0729,0.2522 0,0.325 0.14568,0.14568 0.47932,-0.14568 0.625,0 0.0728,0.0728 -0.0728,0.2272 0,0.3 0.11518,0.11516 0.34942,-0.0147 0.55,-0.075 0.1003,-0.0302 0.18018,-0.0518 0.25,0 0.0698,0.0518 0.1202,0.15746 0.125,0.375 0,0 0,0 0,0 0.0728,0.0728 -0.0921,0.27892 0,0.325 0.18427,0.0921 0.44073,-0.0921 0.625,0 0.0921,0.0461 -0.0728,0.2272 0,0.3 0.20602,0.20603 0.27425,0.0773 0.3,0 0.0258,-0.0773 0,-0.0871 0,0.325 0.10328,0.10327 0.52173,-0.10328 0.625,0 0.0729,0.0728 -0.0728,0.2272 0,0.3 0.12877,0.12877 0.19688,0.12973 0.25,0.075 0.0531,-0.0547 0.0936,-0.16061 0.1,-0.225 0.0129,-0.12877 -0.05,-0.10061 -0.05,0.775 0.0921,0.18427 0.47932,-0.14568 0.625,0 0.0728,0.0728 -0.0921,0.25392 0,0.3 0.18427,0.0921 0.44073,-0.0921 0.625,0 0.0921,0.0461 -0.0728,0.2272 0,0.3 0.0728,0.0728 0.20786,-0.0461 0.3,0 0.1303,0.0651 0.1697,0.25988 0.3,0.325 0.0921,0.0461 0.22198,0 0.325,0 l 0.025,0 c -0.34486,0.58313 -0.675,1.1723 -0.675,1.45 0,0.61587 -1.55277,3.06417 -3.5,5.425 -1.84474,2.25819 -3.79006,5.86947 -4.2,8.025 -0.40994,2.0529 -1.52763,5.42211 -2.45,7.475 -1.02486,1.95025 -2.67763,5.97595 -3.6,8.85 -1.74226,5.44017 -5.62003,10.34905 -5.825,7.475 -0.92237,-10.98298 -0.40718,-17.24012 1.95,-22.475 0.31285,-0.79157 0.59155,-1.66853 0.9,-2.425 0.63116,-1.45377 1.12571,-2.71264 1.675,-3.425 0.94026,-2.54154 2.74989,-5.80659 4.475,-7.4 0.51243,-0.30793 1.84766,-2.44181 2.975,-4.7 0.60266,-1.19658 0.90227,-1.68439 1.4,-2.65 z"
     id="path3154-7" />
  <path
     inkscape:connector-curvature="0"
     style="fill:#000000;stroke:none"
     d="m 170.61935,238.37476 c 0.0728,0.0728 -0.0728,0.22716 0,0.3 0.10328,0.10328 0.49673,-0.10327 0.6,0 0.0728,0.0729 -0.0921,0.27893 0,0.325 0.18428,0.0921 0.44073,-0.0921 0.625,0 0.0921,0.0461 -0.0326,0.20227 0,0.3 0.0728,0.21852 0.22716,0.40647 0.3,0.625 0.0651,0.19545 -0.14568,0.45431 0,0.6 0.0728,0.0728 0.25216,-0.0728 0.325,0 0.14569,0.14568 -0.14568,0.47931 0,0.625 0.0668,0.0667 0.19556,-0.0362 0.275,0 -8e-4,0.054 -0.025,0.0959 -0.025,0.15 0,1.33439 -1.33274,3.90239 -3.075,5.75 -1.06888,1.07054 -1.85258,2.14938 -2.4,3.075 l -0.025,0 c -0.10302,0 -0.23286,0.0461 -0.325,0 -0.1303,-0.0651 -0.1697,-0.25985 -0.3,-0.325 -0.0921,-0.0461 -0.22716,0.0728 -0.3,0 -0.0728,-0.0728 0.0921,-0.25393 0,-0.3 -0.18427,-0.0921 -0.44073,0.0921 -0.625,0 -0.0921,-0.0461 0.0728,-0.22716 0,-0.3 -0.14568,-0.14568 -0.53286,0.18427 -0.625,0 0,-0.87561 0.0629,-0.90377 0.05,-0.775 -0.006,0.0644 -0.0469,0.17027 -0.1,0.225 -0.0531,0.0547 -0.12123,0.0538 -0.25,-0.075 -0.0728,-0.0728 0.0729,-0.22716 0,-0.3 -0.10327,-0.10328 -0.52172,0.10327 -0.625,0 0,-0.41205 0.0258,-0.40225 0,-0.325 -0.0258,0.0773 -0.094,0.20603 -0.3,0 -0.0728,-0.0728 0.0921,-0.25393 0,-0.3 -0.18427,-0.0921 -0.44073,0.0921 -0.625,0 -0.0921,-0.0461 0.0728,-0.25216 0,-0.325 -0.005,-0.21754 -0.0552,-0.32323 -0.125,-0.375 -0.0698,-0.0518 -0.1497,-0.0302 -0.25,0 -0.20058,0.0603 -0.43482,0.19016 -0.55,0.075 -0.0728,-0.0728 0.0728,-0.22716 0,-0.3 -0.14568,-0.14568 -0.47932,0.14568 -0.625,0 -0.0729,-0.0728 0.0728,-0.25216 0,-0.325 -0.14568,-0.14568 -0.53286,0.18428 -0.625,0 -0.0921,-0.18427 0.14568,-0.45431 0,-0.6 -0.14568,-0.14568 -0.41573,0.0921 -0.6,0 -0.0458,-0.0229 -0.0192,-0.0302 -0.05,-0.05 1.26272,-2.44973 2.48893,-4.86008 3.5,-6.75 0.0824,-0.007 0.16854,0.0163 0.25,0 0.10102,-0.0202 -0.0728,-0.25215 0,-0.325 0.0846,-0.0846 1.08234,0.0838 1.25,0 0.1303,-0.0651 0.15867,-0.26466 0.3,-0.3 0.39974,-0.0999 0.81295,0 1.225,0 l 2.475,0 c 0.11349,0 1.23757,-0.0124 1.25,0 z"
     id="path3138-4" />
  <path
     inkscape:connector-curvature="0"
     style="fill:#000000;stroke:none"
     d="m 177.61935,208.44976 c 0.25122,0.0923 0.51755,0.26839 0.825,0.525 0.81989,0.71851 1.23246,1.9512 0.925,2.875 -0.7174,1.53967 -0.92265,3.28049 -2.05,11.8 -0.30745,2.15554 -1.01257,4.72355 -1.525,5.75 -0.61491,1.02645 -1.025,3.28004 -1.025,5.025 0,1.64231 -0.51257,3.39207 -1.025,3.7 -0.59176,0.29635 -0.97057,1.64411 -1,3.025 -0.0794,-0.0362 -0.20819,0.0667 -0.275,0 -0.14568,-0.14569 0.14569,-0.47932 0,-0.625 -0.0728,-0.0728 -0.2522,0.0728 -0.325,0 -0.14568,-0.14569 0.0651,-0.40455 0,-0.6 -0.0728,-0.21853 -0.2272,-0.40648 -0.3,-0.625 -0.0326,-0.0977 0.0921,-0.25392 0,-0.3 -0.18427,-0.0921 -0.44072,0.0921 -0.625,0 -0.0921,-0.0461 0.0728,-0.25212 0,-0.325 -0.10327,-0.10327 -0.49672,0.10328 -0.6,0 -0.0728,-0.0728 0.0728,-0.2272 0,-0.3 -0.0124,-0.0124 -1.13651,0 -1.25,0 l -2.475,0 c -0.41205,0 -0.82526,-0.0999 -1.225,0 -0.14133,0.0354 -0.1697,0.23488 -0.3,0.3 -0.16766,0.0838 -1.16544,-0.0846 -1.25,0 -0.0728,0.0729 0.10102,0.30476 0,0.325 -0.0815,0.0163 -0.16762,-0.007 -0.25,0 2.45349,-4.5861 4.26419,-7.72405 4.85,-8.05 1.94723,-1.33438 4.30249,-7.30479 4.2,-11 -0.10249,-2.05289 0.31257,-4.09206 0.825,-4.4 0.61491,-0.41057 0.80995,-1.13677 0.4,-1.65 -0.30745,-0.51322 0.20263,-2.16297 1.125,-3.6 0.99923,-1.61665 1.59635,-2.12689 2.35,-1.85 z"
     id="path3934-0" />
  <path
     style="fill:#000000;stroke:none"
     d="m 449.69743,197.50444 c 2.76712,2.9767 6.55909,6.36398 8.50632,7.69836 2.35717,1.64231 4.71434,5.13223 7.99389,12.00943 10.13067,13.63293 -0.22575,33.73451 -10.24858,31.9225 -1.74225,-0.30793 -5.7392,-2.46347 -9.01874,-4.72166 -3.17706,-2.25818 -6.25163,-4.10578 -6.66158,-4.10578 -1.63977,0 -11.58089,-10.57241 -13.52812,-14.37026 -2.56214,-5.02959 -2.56214,-6.36398 0.10249,-8.82745 1.12734,-1.02645 2.76712,-3.48992 3.587,-5.54281 0.81989,-1.95025 3.07457,-5.23488 4.91932,-7.18513 1.94723,-1.95025 4.20191,-5.02959 5.0218,-6.77455 2.97209,-5.85075 3.89446,-5.85075 9.3262,-0.10265 z"
     id="path3257-4"
     inkscape:connector-curvature="0"
     sodipodi:nodetypes="cccccscccccc" />
  <path
     style="fill:#000000;stroke:none"
     d="m 448.11185,252.4755 c 1.22983,0.9238 0.56072,-0.46672 -0.15668,3.22849 -0.40994,2.56612 -3.21007,22.11756 -3.31256,28.07095 -0.7773,16.63283 5.47455,29.89315 1.50923,42.00494 -9.29263,-10.11725 -14.38617,-21.96324 -15.09499,-28.45186 -0.40994,-4.10579 -2.00142,-10.83062 -2.30888,-13.90996 1.55178,-7.83936 -1.37477,-13.66331 -2.3148,-19.19456 1.48382,-13.19661 -10.16866,-52.66895 -0.40059,-33.15271 10.24924,12.26946 14.65302,15.04924 22.07927,21.40471 z"
     id="path3273-0"
     inkscape:connector-curvature="0"
     sodipodi:nodetypes="ccccccccc" />
  <path
     style="fill:#000000;stroke:none"
     d="m 469.0638,259.18749 c 0.51242,0.9238 0.12367,5.18516 0.84107,8.26451 -1.23666,11.97145 0.86664,22.65919 -2.27243,29.82309 -0.92237,2.25819 -2.25469,6.15868 -2.97209,8.7248 -0.7174,2.56612 -2.1522,6.56927 -3.17706,8.93009 -2.1522,4.92695 -2.45965,9.34067 -0.92237,14.67819 0.81989,2.66877 0.61492,4.00315 -0.61491,5.85076 -1.94723,3.07933 -3.07458,2.25818 -6.14915,-4.20844 -1.74226,-3.79785 -2.45966,-7.08248 -2.45966,-12.00943 0,-3.79785 -0.7174,-8.82745 -1.63977,-11.29092 -1.4348,-4.00314 -1.4348,-6.87719 -0.30746,-26.07175 0.61492,-11.90679 1.63978,-22.17126 2.25469,-22.88977 0.51243,-0.71851 0.7174,-1.53967 0.40994,-1.95025 -1.02485,-0.9238 1.33232,-3.38727 3.27955,-3.38727 11.58098,4.02232 13.78502,-13.89877 13.72965,5.53639 z"
     id="path3277-9"
     inkscape:connector-curvature="0"
     sodipodi:nodetypes="cccsccccscccccc" />
  <path
     style="fill:#000000;stroke:none"
     d="m 439.02684,327.31222 c -0.76226,8.18835 -2.81326,9.80393 -4.84462,9.25451 -1.9889,-0.68812 0.72817,-0.24116 -0.76449,-8.74424 -0.85938,-5.12104 -1.52642,-9.87934 -1.3622,-10.66351 0.12174,-0.64546 -1.40424,-4.98503 -1.837,-5.8012 1.53424,-5.87787 9.45399,9.91403 8.80831,15.95444 z"
     id="path3287-4"
     inkscape:connector-curvature="0"
     sodipodi:nodetypes="cccccc" />
  <path
     style="fill:#000000;stroke:none"
     d="m 493.90088,170.39113 c 0.30746,0.51322 0.7174,5.13224 0.81989,10.36712 0.10248,5.23488 0.7174,10.36711 1.33231,11.4962 0.61492,1.12909 1.33232,4.8243 1.74226,8.31422 0.51243,4.72166 0.30746,6.56926 -0.7174,7.49307 -2.35717,1.8476 -3.38203,-0.41058 -5.7392,-12.83059 -2.35718,-12.21472 -2.76712,-22.47919 -1.12735,-23.50564 0.61492,-0.41058 0.81989,-1.02645 0.61492,-1.43702 -0.30746,-0.41058 0.20497,-0.82116 1.02486,-0.82116 0.81988,0 1.74225,0.41058 2.04971,0.9238 z"
     id="path3231-8"
     inkscape:connector-curvature="0" />
  <path
     style="fill:#000000;stroke:none"
     d="m 487.21812,170.82817 c 1.53729,1.53967 1.53729,3.38728 -0.30745,8.51951 -1.33232,3.69521 -1.33232,4.92695 0.61491,12.83059 1.12734,4.8243 2.97209,10.46976 3.99694,12.72794 1.02486,2.15554 1.63978,4.61901 1.33232,5.44017 -1.12734,2.87405 -3.79197,0.71851 -6.76406,-5.33752 -1.74226,-3.38728 -4.09943,-8.21158 -5.32926,-10.7777 -1.33231,-2.56611 -3.48451,-7.90364 -4.91932,-12.00943 -2.35717,-6.36397 -2.45965,-7.49306 -1.12734,-8.51951 1.12734,-1.02644 1.74226,-1.02644 2.97209,0 1.33231,1.12909 2.04971,0.9238 4.40689,-1.33438 3.27954,-3.18198 3.48451,-3.18198 5.12428,-1.53967 z"
     id="path3233-8"
     inkscape:connector-curvature="0" />
  <path
     style="fill:#000000;stroke:none"
     d="m 500.01702,178.47039 c 3.99694,5.23488 5.63671,11.59885 7.68643,31.51192 0.20497,1.33438 -0.40995,2.87405 -1.4348,3.59257 -1.4348,0.9238 -2.25469,0.61586 -4.09943,-1.23174 -2.04972,-2.05289 -2.35718,-3.38728 -2.45966,-11.80414 0,-6.26133 -0.61492,-11.29092 -1.84474,-14.98613 -1.63978,-4.72166 -1.63978,-5.64546 -0.40995,-6.97984 1.22983,-1.12909 1.74226,-1.23173 2.56215,-0.10264 z"
     id="path3243-2"
     inkscape:connector-curvature="0" />
  <path
     style="fill:#000000;stroke:none"
     id="path3311-4"
     d="m 447.2478,393.34496 c 2.45966,2.97669 2.66463,8.51951 0.40994,13.24116 -5.64242,12.99677 -9.92335,53.24922 -11.4784,51.63029 -1.02486,-1.23174 -1.22983,-5.7481 -0.7174,-19.50249 0.30745,-9.8539 0.92237,-18.47605 1.4348,-19.19456 0.40994,-0.71852 0.81988,-5.74811 0.81988,-11.08563 0,-8.93009 0.20497,-9.75125 2.25469,-10.7777 1.22983,-0.61586 3.07457,-2.25818 4.09943,-3.48992 1.74226,-2.05289 2.04971,-2.15553 3.17706,-0.82115 z m 18.44743,-8.31422 c 1.84475,1.8476 1.4348,6.05603 -0.7174,8.41686 -1.12734,1.23174 -3.89446,7.90364 -6.25163,14.88348 -2.35717,7.08249 -4.91931,14.06233 -5.63671,15.602 -0.81989,1.53967 -1.74226,5.54281 -1.94723,8.82744 -1.63978,21.04217 -2.04972,23.91622 -3.38203,25.14796 -1.12735,0.9238 -4.69908,4.42014 -5.51896,3.18841 -11.43909,2.98746 -3.00243,-18.01576 -3.57765,-37.23678 -0.10248,-2.15554 0.94947,-2.8973 1.87184,-3.71846 0.81989,-0.71851 -5.4554,-6.65508 1.53729,-8.78737 0.68727,-0.20957 -0.29219,2.30071 3.08984,-4.47384 3.38203,-6.77455 16.63818,-19.28359 16.63818,-19.79681 0,-1.95025 2.66463,-3.28464 3.89446,-2.05289 z"
     inkscape:connector-curvature="0"
     sodipodi:nodetypes="cccccssccsccccccccssss" />
  <path
     inkscape:connector-curvature="0"
     style="fill:#000000;stroke:none"
     d="m 379.55414,101.78374 c 0.0351,0.10448 0.0254,0.22586 0.075,0.325 0.0651,0.1303 0.32199,-0.10301 0.425,0 0.10301,0.10301 -0.10301,0.34698 0,0.45 0.10301,0.103 0.347,-0.10302 0.45,0 0.10302,0.103 -0.1303,0.35984 0,0.425 0.2606,0.1303 0.6144,-0.13031 0.875,0 0,0.43704 -0.0364,0.48642 0,0.45 0.0364,-0.0364 0.13364,-0.14568 0.425,0 0.18428,0.0921 0.26572,0.33286 0.45,0.425 0.1303,0.0651 0.32199,-0.10302 0.425,0 0.14568,0.14568 0.17276,0.25671 0.15,0.325 -0.0228,0.0683 -0.0954,0.10679 -0.15,0.125 -0.10926,0.0364 -0.13272,0 0.45,0 0,0.32575 0.19466,0.64465 0.425,0.875 0.10301,0.10301 0.30432,0 0.45,0 0.29136,0 0.6144,-0.13031 0.875,0 0.13031,0.0651 -0.10301,0.32199 0,0.425 0.10301,0.10301 0.322,-0.10301 0.425,0 0.10302,0.10301 -0.103,0.34698 0,0.45 0.20603,0.20602 0.66898,-0.20603 0.875,0 0.10302,0.103 -0.103,0.32199 0,0.425 0.10302,0.10301 0.347,-0.10301 0.45,0 0.10302,0.10301 -0.103,0.32198 0,0.425 0.10302,0.103 0.32199,-0.10302 0.425,0 0.10301,0.103 -0.10301,0.34698 0,0.45 0.10301,0.103 0.347,-0.10302 0.45,0 0.10302,0.103 -0.13029,0.35985 0,0.425 0.2606,0.1303 0.64398,-0.20603 0.85,0 0.20603,0.20602 -0.1303,0.6144 0,0.875 0.0651,0.1303 0.347,-0.10301 0.45,0 0.10302,0.10301 -0.103,0.34699 0,0.45 0.10302,0.10301 0.32199,-0.10301 0.425,0 0.20603,0.20602 -0.20602,0.66897 0,0.875 0.10301,0.10301 0.347,-0.10301 0.45,0 0.10302,0.10301 -0.103,0.32198 0,0.425 0.10302,0.103 0.27932,0 0.425,0 0,0.14568 -0.10301,0.34699 0,0.45 0.10301,0.10301 0.34699,-0.10301 0.45,0 0.10301,0.10301 -0.10301,0.32199 0,0.425 0.10301,0.10301 0.35985,-0.1303 0.425,0 0.13031,0.2606 -0.20602,0.66897 0,0.875 0.20603,0.20602 0.6144,-0.1303 0.875,0 0.13031,0.0651 -0.103,0.34698 0,0.45 0.20603,0.20602 0.66898,-0.20603 0.875,0 0.10301,0.103 -0.10301,0.32198 0,0.425 0.10517,0.10516 1.64484,-0.10517 1.75,0 0.10302,0.103 -0.103,0.34699 0,0.45 0.10517,0.10516 1.64484,-0.10516 1.75,0 0.10301,0.10301 -0.10301,0.32198 0,0.425 0.21852,0.21852 1.10648,-0.21852 1.325,0 0.10302,0.103 -0.103,0.34699 0,0.45 0.20603,0.20602 0.66898,-0.20603 0.875,0 0.10301,0.10301 -0.1303,0.35984 0,0.425 0.28275,0.14136 1.56801,-0.157 1.725,0 0.10302,0.103 -0.103,0.34698 0,0.45 0.10302,0.103 0.30432,0 0.45,0 0.24375,0 2.15746,-0.0175 2.175,0 0.20603,0.20602 -0.1303,0.61439 0,0.875 0.0651,0.13029 0.30432,0 0.45,0 0.13386,0 0.57964,-0.005 1.025,0 2.67578,8.67906 5.73003,17.42606 7,19.175 1.12736,1.74496 3.36272,4.50504 4.9,6.25 4.3044,4.72164 4.22124,5.02928 -4.9,12.625 -5.32924,4.41372 -6.77032,6.2716 -9.025,12.225 -3.27955,8.31421 -5.64752,12.73054 -5.75,10.57499 0,-0.9238 -1.1152,-3.29711 -2.55,-5.35 -1.4348,-2.05289 -4.00774,-7.89804 -5.75,-12.82499 -1.84474,-4.92696 -3.59005,-9.56177 -4,-10.075 -1.33232,-1.95024 -4.07762,-15.38697 -5,-24.625 -0.51243,-5.13224 -1.65014,-11.28388 -2.675,-13.85 l -1.75,-4.625 2.775,-2.05 c 0.5584,-0.40547 1.362,-1.22668 2.025,-1.775 z"
     id="path3071-1" />
  <path
     inkscape:connector-curvature="0"
     style="fill:#000000;stroke:none"
     d="m 393.25414,87.233739 c 0.237,0.08661 0.49316,0.268392 0.775,0.525 0.81988,0.615864 1.425,1.731488 1.425,2.45 0,0.615872 0.92266,2.048555 2.05,3.075005 1.12736,1.02644 2.05,3.08797 2.05,4.525 0,2.08516 2.19342,10.169716 4.7,18.299996 -0.44536,-0.005 -0.89114,0 -1.025,0 -0.14568,0 -0.38488,0.13029 -0.45,0 -0.1303,-0.26061 0.20603,-0.66898 0,-0.875 -0.0175,-0.0175 -1.93125,0 -2.175,0 -0.14568,0 -0.34698,0.103 -0.45,0 -0.103,-0.10302 0.10302,-0.347 0,-0.45 -0.15699,-0.157 -1.44225,0.14136 -1.725,0 -0.1303,-0.0651 0.10301,-0.32199 0,-0.425 -0.20602,-0.20603 -0.66897,0.20602 -0.875,0 -0.103,-0.10301 0.10302,-0.347 0,-0.45 -0.21852,-0.21852 -1.10648,0.21852 -1.325,0 -0.10301,-0.10302 0.10301,-0.32199 0,-0.425 -0.10516,-0.10516 -1.64483,0.10516 -1.75,0 -0.103,-0.10301 0.10302,-0.347 0,-0.45 -0.10516,-0.10517 -1.64483,0.10516 -1.75,0 -0.10301,-0.10302 0.10301,-0.322 0,-0.425 -0.20602,-0.20603 -0.66897,0.20602 -0.875,0 -0.103,-0.10302 0.13031,-0.38488 0,-0.45 -0.2606,-0.1303 -0.66897,0.20602 -0.875,0 -0.20602,-0.20603 0.13031,-0.6144 0,-0.875 -0.0651,-0.1303 -0.32199,0.10301 -0.425,0 -0.10301,-0.10301 0.10301,-0.32199 0,-0.425 -0.10301,-0.10301 -0.34699,0.10301 -0.45,0 -0.10301,-0.10301 0,-0.30432 0,-0.45 -0.14568,0 -0.32198,0.103 -0.425,0 -0.103,-0.10302 0.10302,-0.32199 0,-0.425 -0.103,-0.10301 -0.34699,0.10301 -0.45,0 -0.20602,-0.20603 0.20603,-0.66898 0,-0.875 -0.10301,-0.10301 -0.32198,0.10301 -0.425,0 -0.103,-0.10301 0.10302,-0.34699 0,-0.45 -0.103,-0.10301 -0.38488,0.1303 -0.45,0 -0.1303,-0.2606 0.20603,-0.66898 0,-0.875 -0.20602,-0.20603 -0.5894,0.1303 -0.85,0 -0.13029,-0.0651 0.10302,-0.322 0,-0.425 -0.103,-0.10302 -0.34699,0.103 -0.45,0 -0.10301,-0.10302 0.10301,-0.347 0,-0.45 -0.10301,-0.10302 -0.32198,0.103 -0.425,0 -0.103,-0.10302 0.10302,-0.32199 0,-0.425 -0.103,-0.10301 -0.34698,0.10301 -0.45,0 -0.103,-0.10301 0.10302,-0.322 0,-0.425 -0.20602,-0.20603 -0.66897,0.20602 -0.875,0 -0.103,-0.10302 0.10302,-0.34699 0,-0.45 -0.103,-0.10301 -0.32199,0.10301 -0.425,0 -0.10301,-0.10301 0.13031,-0.35988 0,-0.425 -0.2606,-0.13031 -0.58364,0 -0.875,0 -0.14568,0 -0.34699,0.10301 -0.45,0 -0.23034,-0.23035 -0.425,-0.54925 -0.425,-0.875 0,0 0,0 0,0 -0.58272,0 -0.55926,0.0364 -0.45,0 0.0546,-0.0182 0.12724,-0.0567 0.15,-0.125 0.0228,-0.0683 -0.004,-0.17932 -0.15,-0.325 -0.10301,-0.10302 -0.2947,0.0651 -0.425,0 -0.18428,-0.0921 -0.26572,-0.33286 -0.45,-0.425 -0.29136,-0.14568 -0.38858,-0.0364 -0.425,0 -0.0364,0.0364 0,-0.013 0,-0.45 -0.2606,-0.13031 -0.6144,0.1303 -0.875,0 -0.1303,-0.0651 0.10302,-0.322 0,-0.425 -0.103,-0.10302 -0.34699,0.103 -0.45,0 -0.10301,-0.10302 0.10301,-0.34699 0,-0.45 -0.10301,-0.10301 -0.35988,0.1303 -0.425,0 -0.0496,-0.0991 -0.0398,-0.22052 -0.075,-0.325 4.20445,-3.477206 9.75,-8.927036 9.75,-9.725001 0,-0.513224 0.72763,-1.943264 1.65,-3.175 0.99924,-1.385704 1.589,-1.909816 2.3,-1.65 z"
     id="path3177-1-7" />
</svg>
